<svg xmlns="http://www.w3.org/2000/svg" width="160" height="100" viewBox="0 0 160 100"><defs><clipPath id="a"><path d="M0 0h160v100H0z"/></clipPath></defs><g data-name="Our Partners-147" clip-path="url(#a)"><path data-name="Path 4" d="M38.286 30.975l16.143 2.047-6.12 13.177H31.417l-3.894-8.915-3.773-8.535z" fill="#565e64" stroke="#565e64" stroke-miterlimit="10"/><path data-name="Line 1" fill="#565e64" d="M26.775 46.569l-9.554-21.814"/><path data-name="Path 5" d="M26.776 46.749a.18.18 0 0 1-.17-.11l-9.554-21.803a.2.2 0 0 1 .1-.25.18.18 0 0 1 .24.1l9.584 21.8a.19.19 0 0 1-.09.25z" fill="#565e64"/><path data-name="Line 2" fill="#565e64" d="M57.035 30.236l-39.814-5.481"/><path data-name="Path 6" d="M57.035 30.416l-39.833-5.471a.2.2 0 0 1-.16-.21.18.18 0 0 1 .21-.16l39.8 5.521a.2.2 0 0 1 .16.21.18.18 0 0 1-.18.11z" fill="#565e64"/><path data-name="Path 7" d="M38.286 78.306l16.143-2.047-6.12-13.178H31.417l-3.894 8.915-3.773 8.536z" fill="#565e64" stroke="#565e64" stroke-miterlimit="10"/><path data-name="Line 3" fill="#565e64" d="M17.221 84.616l9.554-21.814"/><path data-name="Path 8" d="M17.222 84.795h-.07a.2.2 0 0 1-.1-.25l9.554-21.8a.186.186 0 1 1 .339.15l-9.553 21.79a.18.18 0 0 1-.17.11z" fill="#565e64"/><path data-name="Line 4" fill="#565e64" d="M17.221 84.616l39.814-5.481"/><path data-name="Path 9" d="M17.222 84.795a.18.18 0 0 1-.18-.16.2.2 0 0 1 .16-.21l39.8-5.471a.18.18 0 0 1 .21.16.2.2 0 0 1-.16.21l-39.8 5.471z" fill="#565e64"/><path data-name="Path 10" d="M126.389 30.975l-21.474 2.786 5.75 12.438h22.592l3.894-8.915 3.774-8.536z" fill="#565e64" stroke="#565e64" stroke-miterlimit="10"/><path data-name="Line 5" fill="#565e64" d="M147.603 24.386L137.58 46.2"/><path data-name="Path 11" d="M137.581 46.379a.12.12 0 0 1-.08 0 .18.18 0 0 1-.09-.24l9.98-21.813a.19.19 0 1 1 .339.16l-9.939 21.783a.18.18 0 0 1-.21.11z" fill="#565e64"/><path data-name="Line 6" fill="#565e64" d="M147.604 24.386l-45.105 6.22"/><path data-name="Path 12" d="M102.499 30.795a.185.185 0 0 1-.02-.369l45.095-6.22a.18.18 0 0 1 0 .359l-45.095 6.22z" fill="#565e64"/><path data-name="Path 13" d="M126.39 78.676l-21.844-2.786 5.191-12.439h23.521l3.893 8.915 3.774 8.536z" fill="#565e64" stroke="#565e64" stroke-miterlimit="10"/><path data-name="Line 7" fill="#565e64" d="M137.391 63.461l10.213 20.785"/><path data-name="Path 14" d="M147.604 84.426a.19.19 0 0 1-.17-.1l-10.203-20.785a.185.185 0 1 1 .329-.17l10.213 20.785a.19.19 0 0 1-.09.25.12.12 0 0 1-.08.02z" fill="#565e64"/><path data-name="Line 8" fill="#565e64" d="M103.617 78.865l43.987 5.381"/><path data-name="Path 15" d="M147.603 84.425l-44.006-5.41a.19.19 0 0 1-.17-.21.2.2 0 0 1 .21-.16l43.987 5.381a.19.19 0 0 1 0 .369z" fill="#565e64"/><path data-name="Path 16" d="M141.175 55.384l-.07.09v-.19z" fill="#31abde"/><path data-name="Path 17" d="M141.175 55.384l-.07.09v-.19z" fill="#31abde"/><path data-name="Path 18" d="M114.33 55.374c-.869 16.413-12.918 34.433-33.943 34.433S46.922 71.836 46.443 55.374c-.379-13.158 7.078-23.7 18.769-32.007.879-.629 3.055-1.947 3.894-2.6a36.768 36.768 0 0 0 4.082-3.338l1.857-2 1.847-2.3.928-1.478.369-1.3 2.6 3.524 3.341 3.154c1.3.928 5.331 3.6 6.5 4.263s3.574 2 4.632 2.785c11.7 8.415 19.767 17.999 19.068 31.297z" fill="#31abde"/><path data-name="Path 19" d="M80.376 89.997a32.286 32.286 0 0 1-24.858-11.122 37.747 37.747 0 0 1-9.275-23.491c-.349-12.2 5.99-23.022 18.849-32.166.369-.27 1-.659 1.607-1.068.889-.569 1.8-1.158 2.286-1.527l1.208-.918a23.961 23.961 0 0 0 2.855-2.406l1.847-2 1.848-2.214.909-1.448.459-1.637 2.775 3.774 3.324 3.135c1.3.928 5.3 3.594 6.469 4.253l.429.25c1.3.739 3.265 1.857 4.223 2.546 6.519 4.632 11.161 9.135 14.276 13.857a28.093 28.093 0 0 1 4.9 17.571 39.354 39.354 0 0 1-9.454 23.481 31.947 31.947 0 0 1-24.677 11.13zM78.26 10.789l-.28 1-1 1.507-1.857 2.226-1.857 2.047a23.791 23.791 0 0 1-2.905 2.456l-1.208.908c-.489.389-1.408 1-2.306 1.557-.629.4-1.228.789-1.6 1.048-12.7 9.045-18.978 19.767-18.629 31.837a37.318 37.318 0 0 0 9.175 23.261 31.947 31.947 0 0 0 24.579 10.982 31.587 31.587 0 0 0 24.4-10.982 39.025 39.025 0 0 0 9.371-23.262 27.694 27.694 0 0 0-4.842-17.351c-3.095-4.652-7.717-9.145-14.146-13.757-.938-.669-2.9-1.787-4.183-2.526l-.439-.24c-1.168-.679-5.221-3.364-6.509-4.283l-3.364-3.175z" fill="#fff"/><path data-name="Path 20" d="M143.031 59.378l3.524 4.822H12.369l3.524-4.822 2.785-3.834.12-.16-.12-.16-2.785-3.834-3.524-4.821h134.186l-3.524 4.822-2.785 3.834v.319z" fill="#31abde"/><path data-name="Path 21" d="M146.915 64.379H12l3.744-5.11 2.825-3.884-2.785-3.834L12 46.379h134.915l-3.734 5.121-2.755 3.784v.2l2.755 3.784zM12.729 64.04h133.457l-3.3-4.532-2.825-3.874v-.439l6.13-8.416H12.729l3.314 4.532 2.995 4.1z" fill="#fff"/><path data-name="Path 22" d="M63.804 36.356a.11.11 0 0 1 0-.13l4.832-7.607a.08.08 0 0 1 .12 0 .09.09 0 0 1 0 .13l-4.842 7.567a.09.09 0 0 1-.11.04z" fill="#565e64"/><path data-name="Path 23" d="M77.89 30.099l-9.284-1.3a.1.1 0 0 1-.08-.11.09.09 0 0 1 .11-.07l9.275 1.3a.091.091 0 1 1-.02.18z" fill="#565e64"/><path data-name="Path 24" d="M77.89 30.096a.121.121 0 0 1-.09-.18l7.99-3.334a.113.113 0 0 1 .12.17l-7.987 3.334z" fill="#565e64"/><path data-name="Path 25" d="M55.637 40.629a.116.116 0 0 1-.08-.18l8.17-4.263a.09.09 0 1 1 .08.16l-8.17 4.273z" fill="#565e64"/><path data-name="Path 26" d="M55.827 46.199a.11.11 0 0 1-.1-.09l-.18-5.571a.1.1 0 0 1 .09-.1c.05 0 .09 0 .09.09l.2 5.541a.11.11 0 0 1-.09.1z" fill="#565e64"/><path data-name="Path 27" d="M52.303 45.076a.09.09 0 0 1-.08 0 .1.1 0 0 1 0-.13l3.334-2.6a.092.092 0 1 1 .13.13l-3.334 2.6z" fill="#565e64"/><path data-name="Path 28" d="M52.303 46.01a.09.09 0 0 1-.1-.09v-.928a.095.095 0 1 1 .19 0v.928a.09.09 0 0 1-.09.09z" fill="#565e64"/><path data-name="Path 29" d="M57.305 39.7a.11.11 0 0 1-.09-.1l.369-4.453a.1.1 0 0 1 .19 0l-.369 4.453a.11.11 0 0 1-.1.1z" fill="#565e64"/><path data-name="Path 30" d="M57.684 35.248a.1.1 0 0 1-.09-.07.09.09 0 0 1 .06-.12l8.356-2.406a.08.08 0 0 1 .11.06.09.09 0 0 1-.06.12l-8.356 2.406z" fill="#565e64"/><path data-name="Path 31" d="M67.515 30.416h-4.6a.09.09 0 0 1 0-.18h4.642a.09.09 0 1 1 0 .18z" fill="#565e64"/><path data-name="Path 32" d="M61.577 34.089a.1.1 0 0 1-.06-.12l1.3-3.714a.1.1 0 0 1 .12-.06.09.09 0 0 1 .06.12l-1.33 3.774a.1.1 0 0 1-.09 0z" fill="#565e64"/><path data-name="Path 33" d="M70.303 28.938a.11.11 0 0 1-.07 0 .1.1 0 0 1 0-.13l3.155-3.344a.1.1 0 0 1 .14.13l-3.155 3.344a.11.11 0 0 1-.07 0z" fill="#565e64"/><path data-name="Path 34" d="M81.435 28.559l-7.987-3a.09.09 0 0 1-.06-.12.1.1 0 0 1 .12 0l7.987 3a.1.1 0 0 1 0 .12.09.09 0 0 1-.06 0z" fill="#565e64"/><path data-name="Path 35" d="M84.04 27.45h-.06l-3.524-2.6a.093.093 0 0 1 .11-.15l3.524 2.6a.085.085 0 0 1-.05.15z" fill="#565e64"/><path data-name="Path 36" d="M77.171 26.891a.077.077 0 0 1-.08-.13l3.334-2.047a.1.1 0 0 1 .13 0 .09.09 0 0 1 0 .13l-3.334 2.047z" fill="#565e64"/><path data-name="Path 37" d="M92.386 33.021a.07.07 0 0 1-.06 0l-6.449-6.339a.092.092 0 0 1 .13-.13l6.5 6.309a.1.1 0 0 1 0 .13.09.09 0 0 1-.121.03z" fill="#565e64"/><path data-name="Path 38" d="M101.481 35.428l-9.095-2.416a.09.09 0 0 1-.07-.11.1.1 0 0 1 .12-.07l9.085 2.416a.092.092 0 1 1-.04.18z" fill="#565e64"/><path data-name="Path 39" d="M102.968 44.343a.09.09 0 0 1-.09-.08l-1.487-8.905a.09.09 0 0 1 .08-.11.08.08 0 0 1 .1.07l1.488 8.915a.1.1 0 0 1-.08.11z" fill="#565e64"/><path data-name="Path 40" d="M104.455 46.01a.08.08 0 0 1-.07 0l-1.487-1.667a.1.1 0 0 1 0-.14.09.09 0 0 1 .13 0l1.478 1.667a.1.1 0 0 1 0 .14z" fill="#565e64"/><path data-name="Path 41" d="M87.195 27.82a.1.1 0 0 1-.1-.08.09.09 0 0 1 .08-.1l4.692-.539a.1.1 0 0 1 .11.08.09.09 0 0 1-.09.1l-4.632.559z" fill="#565e64"/><path data-name="Path 42" d="M96.659 34.09a.09.09 0 0 1-.08 0l-4.822-6.868a.092.092 0 1 1 .13-.13l4.822 6.869a.08.08 0 0 1 0 .12.06.06 0 0 1-.05.009z" fill="#565e64"/><path data-name="Path 43" d="M97.956 30.605l-3.893-.19a.09.09 0 1 1 .01-.18l3.894.18a.11.11 0 0 1 .09.1.09.09 0 0 1-.1.09z" fill="#565e64"/><path data-name="Path 44" d="M99.624 34.879a.09.09 0 0 1-.08-.06l-1.687-4.273a.1.1 0 0 1 .18-.07l1.667 4.273a.1.1 0 0 1-.05.12z" fill="#565e64"/><path data-name="Path 45" d="M105.564 46.2a.11.11 0 0 1-.09-.1l.18-7.238a.1.1 0 0 1 .1-.09.09.09 0 0 1 .09.09l-.19 7.208a.09.09 0 0 1-.09.13z" fill="#565e64"/><path data-name="Path 46" d="M105.75 38.962l-3.9-1.877a.11.11 0 0 1 0-.13.1.1 0 0 1 .12 0l3.874 1.827a.1.1 0 0 1 0 .12.09.09 0 0 1-.094.06z" fill="#565e64"/><path data-name="Path 47" d="M108.719 45.45h-.06l-2.995-2.6a.1.1 0 0 1 0-.14.09.09 0 0 1 .13 0l2.995 2.6a.079.079 0 0 1-.07.14z" fill="#565e64"/><path data-name="Path 48" d="M108.719 46.199a.1.1 0 0 1-.09-.1v-.738a.09.09 0 1 1 .18 0v.71a.1.1 0 0 1-.09.13z" fill="#565e64"/><path data-name="Path 49" d="M55.078 66.039h-.047l-1.86-1.3a.093.093 0 1 1 .11-.15l1.857 1.3a.09.09 0 0 1 0 .13.12.12 0 0 1-.06.02z" fill="#565e64"/><path data-name="Path 50" d="M55.078 70.139a.09.09 0 0 1-.09-.1v-5.38a.095.095 0 0 1 .19 0v5.371a.09.09 0 0 1-.1.11z" fill="#565e64"/><path data-name="Path 51" d="M58.981 72.176l-3.894-2a.1.1 0 1 1 .09-.17l3.894 2a.09.09 0 0 1 0 .12.1.1 0 0 1-.09.05z" fill="#565e64"/><path data-name="Path 52" d="M59.351 74.023a.09.09 0 0 1-.09-.08l-1.487-9.274a.1.1 0 0 1 .08-.11.08.08 0 0 1 .1.08l1.488 9.275a.1.1 0 0 1-.08.11z" fill="#565e64"/><path data-name="Path 53" d="M68.076 76.079l-8.725-2a.09.09 0 0 1 0-.18l8.725 2a.11.11 0 0 1 .07.12.1.1 0 0 1-.07.06z" fill="#565e64"/><path data-name="Path 54" d="M74.566 82.569h-.06l-6.499-6.549a.1.1 0 0 1 0-.13.09.09 0 0 1 .13 0l6.5 6.489a.1.1 0 0 1 0 .14z" fill="#565e64"/><path data-name="Path 55" d="M74.566 82.569a.09.09 0 0 1-.08 0 .1.1 0 0 1 0-.13l8.4-3.424a.071.071 0 1 1 .06.12l-8.35 3.344z" fill="#565e64"/><path data-name="Path 56" d="M92.206 80.343l-9.324-1.108a.1.1 0 0 1-.08-.11.08.08 0 0 1 .1-.08l9.285 1.118a.093.093 0 0 1 .02.18z" fill="#565e64"/><path data-name="Path 57" d="M92.206 80.342h-.06a.09.09 0 0 1 0-.13l4.992-7.428a.093.093 0 0 1 .15.11l-4.992 7.418a.08.08 0 0 1-.09.03z" fill="#565e64"/><path data-name="Path 58" d="M97.218 72.925a.08.08 0 0 1-.09-.13l7.987-4.263a.08.08 0 0 1 .12 0 .09.09 0 0 1 0 .13l-7.987 4.27z" fill="#565e64"/><path data-name="Path 59" d="M105.195 68.652a.09.09 0 0 1-.09-.09v-4.083a.09.09 0 1 1 .18 0v4.083a.09.09 0 0 1-.09.09z" fill="#565e64"/><path data-name="Path 60" d="M105.195 66.615a.08.08 0 0 1-.07 0 .09.09 0 0 1 0-.13l2.6-2a.092.092 0 1 1 .13.13l-2.6 2.047z" fill="#565e64"/><path data-name="Path 61" d="M103.148 73.854a.1.1 0 0 1-.09-.11l.369-4.263a.11.11 0 0 1 .1-.09.1.1 0 0 1 .09.11l-.369 4.263a.11.11 0 0 1-.1.09z" fill="#565e64"/><path data-name="Path 62" d="M94.982 76.26a.1.1 0 0 1-.09-.06.11.11 0 0 1 .07-.12l8.166-2.416a.09.09 0 0 1 .11.07.08.08 0 0 1-.06.11l-8.166 2.416z" fill="#565e64"/><path data-name="Path 63" d="M97.764 78.865h-4.45a.1.1 0 0 1-.09-.1.09.09 0 0 1 .09-.09h4.45a.1.1 0 0 1 .1.09.11.11 0 0 1-.1.1z" fill="#565e64"/><path data-name="Path 64" d="M97.767 78.865a.09.09 0 0 1 0-.12l1.667-3.9a.09.09 0 0 1 .12 0 .1.1 0 0 1 0 .13l-1.697 3.83a.11.11 0 0 1-.09.06z" fill="#565e64"/><path data-name="Path 65" d="M87.375 83.497l-7.987-2.785a.09.09 0 0 1-.06-.12.1.1 0 0 1 .12-.06l7.987 2.785a.095.095 0 1 1-.06.18z" fill="#565e64"/><path data-name="Path 66" d="M87.374 83.497h-.06a.09.09 0 0 1 0-.13l3.145-3.354a.1.1 0 0 1 .14 0 .09.09 0 0 1 0 .13l-3.155 3.334a.09.09 0 0 1-.07.02z" fill="#565e64"/><path data-name="Path 67" d="M80.506 84.425h-.05l-4.083-2.6a.11.11 0 0 1 0-.13.09.09 0 0 1 .13 0l4.083 2.6a.076.076 0 0 1-.08.13z" fill="#565e64"/><path data-name="Path 68" d="M80.506 84.426a.08.08 0 0 1-.07 0 .09.09 0 0 1 0-.13l3.175-2.286a.09.09 0 0 1 .13 0 .08.08 0 0 1 0 .12l-3.155 2.236z" fill="#565e64"/><path data-name="Path 69" d="M62.696 78.866a.1.1 0 0 1-.09-.07l-1.298-4.273a.09.09 0 1 1 .17 0l1.3 4.273a.08.08 0 0 1-.06.11z" fill="#565e64"/><path data-name="Path 70" d="M69.005 82.01a.1.1 0 0 1-.1 0l-4.273-6.679a.11.11 0 0 1 0-.13.1.1 0 0 1 .13 0l4.273 6.679a.11.11 0 0 1 0 .13z" fill="#565e64"/><path data-name="Path 71" d="M66.959 78.865h-4.263a.1.1 0 0 1-.1-.1.09.09 0 0 1 .1-.09h4.263a.09.09 0 0 1 .09.09.1.1 0 0 1-.09.1z" fill="#565e64"/><path data-name="Path 72" d="M69.005 82.011a.11.11 0 0 1-.1-.09.1.1 0 0 1 .08-.1l4.273-.559a.08.08 0 0 1 .1.08.09.09 0 0 1-.08.11l-4.263.559z" fill="#565e64"/><path data-name="Path 73" d="M38.236 56.921a2.656 2.656 0 0 1-.908.779 2.865 2.865 0 0 1-1.368.349 3.285 3.285 0 0 1-1.258-.24 3 3 0 0 1-1-.639 3.135 3.135 0 0 1-.649-1 3.514 3.514 0 0 1 0-2.526 2.726 2.726 0 0 1 .659-1 3 3 0 0 1 1-.629 3.474 3.474 0 0 1 1.248-.27 3.255 3.255 0 0 1 .619.06 3.773 3.773 0 0 1 .6.17 2.9 2.9 0 0 1 .519.29 2.155 2.155 0 0 1 .4.4l-.649.509a1.727 1.727 0 0 0-.619-.5 2 2 0 0 0-.869-.2 2.176 2.176 0 0 0-.928.19 2.077 2.077 0 0 0-.709.519 2.336 2.336 0 0 0-.459.759 2.775 2.775 0 0 0-.16.918 2.605 2.605 0 0 0 .16.938 2.2 2.2 0 0 0 .439.759 2 2 0 0 0 .709.509 2.336 2.336 0 0 0 .928.19 2 2 0 0 0 .918-.21 1.807 1.807 0 0 0 .679-.579z" fill="#fff"/><path data-name="Path 74" d="M39.955 57.101h3.1v.739h-3.97V51.9h3.864v.729h-2.994v1.787h2.8v.709h-2.8z" fill="#fff"/><path data-name="Path 75" d="M44.946 57.84h-.84V51.9h1.907a3.615 3.615 0 0 1 .819.09 1.927 1.927 0 0 1 .669.28 1.328 1.328 0 0 1 .459.509 1.537 1.537 0 0 1 .17.769 1.418 1.418 0 0 1-.4 1.058 1.867 1.867 0 0 1-1 .509l1.657 2.725h-1l-1.507-2.636h-.934zm0-3.334h1a3.114 3.114 0 0 0 .549-.05 1.348 1.348 0 0 0 .439-.17.759.759 0 0 0 .3-.29 1 1 0 0 0 0-.9.809.809 0 0 0-.29-.29 1.308 1.308 0 0 0-.419-.16 3 3 0 0 0-.519 0h-1.06z" fill="#fff"/><path data-name="Path 76" d="M51.264 57.84h-.825v-5.211h-1.91V51.9h4.642v.729h-1.907z" fill="#fff"/><path data-name="Path 77" d="M54.789 57.84h-.859V51.9h.829z" fill="#fff"/><path data-name="Path 78" d="M57.065 57.84h-.829V51.9h3.684v.729h-2.855v1.847h2.7v.719h-2.7z" fill="#fff"/><path data-name="Path 79" d="M61.837 57.84h-.839V51.9h.839z" fill="#fff"/><path data-name="Path 80" d="M64.115 57.101h3.1v.739h-3.99V51.9h3.814v.729h-3v1.787h2.865v.709h-2.789z" fill="#fff"/><path data-name="Path 81" d="M68.326 51.9h2a4.083 4.083 0 0 1 1.138.17 3.1 3.1 0 0 1 1 .529 2.805 2.805 0 0 1 .739.918 2.865 2.865 0 0 1 .29 1.358 2.735 2.735 0 0 1-.29 1.318 2.994 2.994 0 0 1-.739.928 3.314 3.314 0 0 1-1 .539 3.763 3.763 0 0 1-1.138.18h-2zm.829 5.211h1a3.215 3.215 0 0 0 1-.15 2.336 2.336 0 0 0 .789-.439 1.887 1.887 0 0 0 .509-.7 2.236 2.236 0 0 0 .19-1 2.316 2.316 0 0 0-.19-1 1.887 1.887 0 0 0-.509-.7 2.316 2.316 0 0 0-.789-.429 3.215 3.215 0 0 0-1-.15h-1z" fill="#fff"/><path data-name="Path 82" d="M76.812 51.9h2a4.083 4.083 0 0 1 1.138.17 3.1 3.1 0 0 1 1 .529 2.706 2.706 0 0 1 .749.918 3 3 0 0 1 .28 1.358 2.725 2.725 0 0 1-1 2.246 3.314 3.314 0 0 1-1 .539 3.763 3.763 0 0 1-1.138.18h-2zm.829 5.211h1a3.215 3.215 0 0 0 1-.15 2.336 2.336 0 0 0 .789-.439 2 2 0 0 0 .519-.7 2.4 2.4 0 0 0 .18-1 2.476 2.476 0 0 0-.18-1 2 2 0 0 0-.519-.7 2.317 2.317 0 0 0-.789-.429 3.215 3.215 0 0 0-1-.15h-1z" fill="#fff"/><path data-name="Path 83" d="M84.03 57.101h3.1v.739h-3.989V51.9h3.814v.729H83.96v1.787h2.915v.709H84.07z" fill="#fff"/><path data-name="Path 84" d="M90.21 56.772l1.787-4.872h.9l-2.336 5.94h-.687l-2.316-5.94h.918z" fill="#fff"/><path data-name="Path 85" d="M94.464 57.101h3.1v.739h-3.93V51.9h3.8v.729h-2.995v1.787h2.805v.709h-2.78z" fill="#fff"/><path data-name="Path 86" d="M99.504 57.101h2.651v.739h-3.48V51.9h.829z" fill="#fff"/><path data-name="Path 87" d="M108.709 54.86a3.214 3.214 0 0 1-.24 1.258 3 3 0 0 1-.659 1 3.055 3.055 0 0 1-1 .639 3.285 3.285 0 0 1-1.258.24 3.215 3.215 0 0 1-1.258-.24 3 3 0 0 1-1-.639 2.836 2.836 0 0 1-.649-1 3.444 3.444 0 0 1 0-2.526 2.706 2.706 0 0 1 .649-1 2.935 2.935 0 0 1 1-.629 3.394 3.394 0 0 1 1.258-.23 3.474 3.474 0 0 1 1.258.23 3 3 0 0 1 1 .629 2.865 2.865 0 0 1 .659 1 3.225 3.225 0 0 1 .24 1.268zm-.9 0a2.775 2.775 0 0 0-.16-.918 2.337 2.337 0 0 0-.459-.759 2.077 2.077 0 0 0-.709-.519 2.177 2.177 0 0 0-.928-.19 2.117 2.117 0 0 0-.928.19 2.076 2.076 0 0 0-.709.519 2.506 2.506 0 0 0-.449.759 2.535 2.535 0 0 0-.16.918 2.6 2.6 0 0 0 .16.928 2.386 2.386 0 0 0 .449.759 2 2 0 0 0 .709.509 2.117 2.117 0 0 0 .928.19 2.177 2.177 0 0 0 .928-.19 1.927 1.927 0 0 0 .709-.509 2.236 2.236 0 0 0 .459-.759 2.835 2.835 0 0 0 .19-.928z" fill="#fff"/><path data-name="Path 88" d="M109.837 51.9h1.817a3.344 3.344 0 0 1 .869.1 1.647 1.647 0 0 1 .669.3 1.248 1.248 0 0 1 .429.509 1.727 1.727 0 0 1 .15.749 1.637 1.637 0 0 1-.16.759 1.338 1.338 0 0 1-.449.519 2 2 0 0 1-.689.3 3.434 3.434 0 0 1-.859.1h-.948v2.604h-.829zm.829 2.626h.889a2.536 2.536 0 0 0 .559 0 1.438 1.438 0 0 0 .439-.17.729.729 0 0 0 .284-.296 1.058 1.058 0 0 0 0-.9.919.919 0 0 0-.29-.3 1.278 1.278 0 0 0-.429-.16 3.155 3.155 0 0 0-.549 0h-.9z" fill="#fff"/><path data-name="Path 89" d="M115.667 57.101h3.155v.739h-3.994V51.9h3.814v.729h-2.995v1.787h2.8v.709h-2.8z" fill="#fff"/><path data-name="Path 90" d="M120.709 57.84h-.829V51.9h1.94a3.584 3.584 0 0 1 .809.09 2.067 2.067 0 0 1 .679.28 1.508 1.508 0 0 1 .459.509 1.647 1.647 0 0 1 .16.769 1.418 1.418 0 0 1-.4 1.058 1.867 1.867 0 0 1-1 .509l1.657 2.725h-1l-1.507-2.636h-.889zm0-3.334h1a3 3 0 0 0 .539-.05 1.5 1.5 0 0 0 .449-.17.808.808 0 0 0 .29-.29 1 1 0 0 0 0-.9.809.809 0 0 0-.29-.29 1.308 1.308 0 0 0-.419-.16 2.777 2.777 0 0 0-.509 0h-1z" fill="#fff"/><path data-name="Path 91" d="M127.986 52.998a1.467 1.467 0 0 0-.479-.4 1.507 1.507 0 0 0-.679-.15 1.916 1.916 0 0 0-.409 0 1.158 1.158 0 0 0-.369.18.889.889 0 0 0-.28.3.849.849 0 0 0-.1.429.729.729 0 0 0 .1.409.858.858 0 0 0 .26.28 1.5 1.5 0 0 0 .379.19l.479.17.609.21a2.236 2.236 0 0 1 .569.309 1.737 1.737 0 0 1 .409.479 1.617 1.617 0 0 1 .16.739 1.807 1.807 0 0 1-.17.8 1.587 1.587 0 0 1-.459.559 2.057 2.057 0 0 1-.659.339 2.865 2.865 0 0 1-.769.11 2.905 2.905 0 0 1-1.088-.22 2.166 2.166 0 0 1-.869-.649l.649-.549a1.567 1.567 0 0 0 1.737.639 1.377 1.377 0 0 0 .389-.18 1.079 1.079 0 0 0 .28-.319 1 1 0 0 0 .11-.459.789.789 0 0 0-.12-.449.858.858 0 0 0-.3-.3 1.876 1.876 0 0 0-.449-.22l-.539-.18a4.291 4.291 0 0 1-.569-.2 2.066 2.066 0 0 1-.489-.319 1.368 1.368 0 0 1-.359-.459 1.6 1.6 0 0 1-.13-.689 1.567 1.567 0 0 1 .18-.769 1.706 1.706 0 0 1 .469-.529 1.807 1.807 0 0 1 .659-.3 2.566 2.566 0 0 1 .729-.1 2.476 2.476 0 0 1 1 .19 1.917 1.917 0 0 1 .729.489z" fill="#fff"/><path data-name="Path 92" d="M83.57 42.982a2 2 0 0 1-2-2.176v-2.064h.829v2.067c0 .859.429 1.388 1.128 1.388s1.138-.529 1.138-1.388v-2.077h.829v2.077a2 2 0 0 1-2 2.176m2.735-4.243h.829v4.123h-.829zm-11.141 3.5a1.4 1.4 0 1 1 1-2.426 2.935 2.935 0 0 1 .4-.709 2.2 2.2 0 1 0 0 3.464 2.9 2.9 0 0 1-.4-.709 1.4 1.4 0 0 1-1 .379m14.775-2.915a1.228 1.228 0 0 0-.928.419 1.547 1.547 0 0 0-.359 1 1.587 1.587 0 0 0 .349 1.058 1.168 1.168 0 0 0 .928.429 1.238 1.238 0 0 0 1-.409 1.587 1.587 0 0 0 .369-1.058 1.567 1.567 0 0 0-.369-1.058 1.188 1.188 0 0 0-1-.419zm-.16 3.644a1.837 1.837 0 0 1-1.408-.609 2.306 2.306 0 0 1-.549-1.587 2.246 2.246 0 0 1 .549-1.547 1.807 1.807 0 0 1 1.388-.619 1.737 1.737 0 0 1 1.278.6l.16.16v-.636h.819v4.123h-.819v-.573l-.15.14a1.837 1.837 0 0 1-1.268.549zm-10.815-4.318s-.05 0 0 .05a2.486 2.486 0 0 0 .629.839 1.637 1.637 0 0 1 .719 1.288 1.4 1.4 0 0 1-1.378 1.4 1.378 1.378 0 0 1-1.368-1.4 1.617 1.617 0 0 1 .719-1.288 2.206 2.206 0 0 0 .619-.849v-.05a2.156 2.156 0 1 0 0 4.3 2.077 2.077 0 0 0 2.216-2.116 2.186 2.186 0 0 0-2.156-2.176" fill="#fff"/><path data-name="Path 93" d="M80.455 41.507l-.569.569.8.769h1.2l-1.44-1.362m-10.782-.1l1-2.136 1 2.136zm2.6 1.458h.859l-2.162-4.758a.349.349 0 0 0-.639 0l-2.166 4.8h.859l.31-.689h2.626z" fill="#fff"/><path data-name="Path 94" d="M92.715 39.561a.389.389 0 0 1-.379-.389.379.379 0 0 1 .379-.379.389.389 0 0 1 .389.379.4.4 0 0 1-.389.389zm0-.719a.329.329 0 1 0 .329.329.329.329 0 0 0-.329-.329z" fill="#fff"/><path data-name="Path 95" d="M92.675 39.331v-.359h.16a.08.08 0 0 1 0 .06h-.06l.09.16-.09-.16zm0-.2h.12v-.049h-.12z" fill="#fff"/></g></svg>