<svg id="Layer_1" data-name="Layer 1" xmlns="http://www.w3.org/2000/svg" viewBox="0 0 120 120"><defs><style>.cls-1{fill:#fff;}.cls-2,.cls-3{fill:#0d323c;}.cls-2{stroke:#0d323c;stroke-miterlimit:10;stroke-width:0.65px;}.cls-4{fill:none;}.cls-5,.cls-6{fill:#231f20;}.cls-6{fill-rule:evenodd;}.cls-7{fill:#fe3d2e;}</style></defs><circle class="cls-1" cx="60.24" cy="59.81" r="58.74"/><path class="cls-2" d="M60.24,118.68a58.87,58.87,0,1,1,58.87-58.87A58.94,58.94,0,0,1,60.24,118.68Zm0-117.49a58.62,58.62,0,1,0,58.62,58.62A58.68,58.68,0,0,0,60.24,1.19Z"/><path class="cls-3" d="M60.24,111.11a51.3,51.3,0,1,1,51.3-51.3A51.37,51.37,0,0,1,60.24,111.11Zm0-101.62a50.32,50.32,0,1,0,50.32,50.32A50.38,50.38,0,0,0,60.24,9.49Z"/><polygon class="cls-4" points="106.3 59.81 106.14 62.98 109.8 63.24 109.97 59.81 106.3 59.81"/><rect class="cls-5" x="107.64" y="62.37" width="0.61" height="0.37" transform="translate(40.02 167.21) rotate(-87.1)"/><polygon class="cls-6" points="108.2 61.16 107.83 61.15 107.8 61.76 108.17 61.77 108.2 61.16"/><polygon class="cls-6" points="108.26 60.06 107.89 60.06 107.86 60.67 108.22 60.67 108.26 60.06"/><polygon class="cls-4" points="106.14 62.98 106.06 64.57 105.82 66.14 109.45 66.65 109.71 64.95 109.8 63.24 106.14 62.98"/><polygon class="cls-6" points="107.89 65.56 107.53 65.52 107.44 66.12 107.8 66.17 107.89 65.56"/><path class="cls-6" d="M108,64.47l-.36,0a4.07,4.07,0,0,1-.07.61l.37,0A4.2,4.2,0,0,0,108,64.47Z"/><polygon class="cls-6" points="108.09 63.37 107.72 63.34 107.69 63.95 108.06 63.98 108.09 63.37"/><path class="cls-4" d="M105.82,66.14c-.17,1-.3,2.1-.5,3.14l3.59.76c.22-1.13.36-2.26.54-3.39Z"/><polygon class="cls-6" points="107.39 68.84 107.03 68.77 106.94 69.38 107.3 69.45 107.39 68.84"/><polygon class="cls-6" points="107.56 67.75 107.2 67.69 107.11 68.29 107.47 68.36 107.56 67.75"/><polygon class="cls-6" points="107.72 66.66 107.36 66.61 107.27 67.21 107.63 67.27 107.72 66.66"/><polygon class="cls-4" points="105.32 69.28 104.53 72.36 108.06 73.36 108.91 70.03 105.32 69.28"/><polygon class="cls-6" points="106.63 72.06 106.28 71.97 106.12 72.56 106.48 72.66 106.63 72.06"/><polygon class="cls-6" points="106.91 71 106.55 70.91 106.4 71.5 106.75 71.59 106.91 71"/><polygon class="cls-6" points="107.18 69.93 106.82 69.85 106.67 70.44 107.03 70.53 107.18 69.93"/><path class="cls-4" d="M104.53,72.36a21.32,21.32,0,0,1-1,3L107,76.62a24.8,24.8,0,0,0,1.06-3.26Z"/><polygon class="cls-6" points="105.69 75.24 105.34 75.12 105.13 75.69 105.48 75.82 105.69 75.24"/><polygon class="cls-6" points="106.07 74.2 105.72 74.09 105.51 74.67 105.86 74.78 106.07 74.2"/><polygon class="cls-6" points="106.35 73.14 106 73.04 105.85 73.63 106.2 73.74 106.35 73.14"/><path class="cls-4" d="M103.54,75.38,103,76.87a11.1,11.1,0,0,1-.61,1.47l3.36,1.48a11.46,11.46,0,0,0,.66-1.58l.59-1.62Z"/><path class="cls-6" d="M104.55,78.35l-.34-.14a5.62,5.62,0,0,1-.25.56l.34.14A4.75,4.75,0,0,0,104.55,78.35Z"/><polygon class="cls-6" points="104.93 77.31 104.59 77.18 104.38 77.75 104.72 77.89 104.93 77.31"/><rect class="cls-5" x="104.72" y="76.32" width="0.61" height="0.37" transform="translate(-2.89 148.88) rotate(-69.92)"/><polygon class="cls-4" points="102.39 78.34 101.01 81.2 104.26 82.91 105.75 79.82 102.39 78.34"/><polygon class="cls-6" points="103.13 81.34 102.8 81.18 102.53 81.73 102.86 81.9 103.13 81.34"/><polygon class="cls-6" points="103.61 80.35 103.27 80.19 103.01 80.74 103.34 80.91 103.61 80.35"/><polygon class="cls-6" points="104.08 79.36 103.75 79.21 103.48 79.76 103.81 79.91 104.08 79.36"/><path class="cls-4" d="M101,81.21a11,11,0,0,1-.77,1.38L99.41,84l3.13,1.93.89-1.47a12.17,12.17,0,0,0,.83-1.5Z"/><polygon class="cls-6" points="101.53 84.25 101.22 84.06 100.9 84.58 101.21 84.77 101.53 84.25"/><polygon class="cls-6" points="102.11 83.31 101.79 83.13 101.47 83.65 101.79 83.83 102.11 83.31"/><path class="cls-6" d="M102.64,82.35l-.32-.18a4.58,4.58,0,0,1-.28.54l.32.18A5.52,5.52,0,0,0,102.64,82.35Z"/><path class="cls-4" d="M99.41,84l-.82,1.36c-.27.46-.62.86-.93,1.29l3,2.14c.33-.47.71-.9,1-1.39l.9-1.47Z"/><polygon class="cls-6" points="99.77 87.06 99.47 86.85 99.1 87.33 99.4 87.55 99.77 87.06"/><polygon class="cls-6" points="100.38 86.14 100.08 85.94 99.76 86.46 100.06 86.66 100.38 86.14"/><polygon class="cls-6" points="100.96 85.2 100.64 85 100.33 85.53 100.64 85.72 100.96 85.2"/><polygon class="cls-4" points="97.66 86.6 95.75 89.14 98.58 91.48 100.64 88.74 97.66 86.6"/><polygon class="cls-6" points="97.79 89.71 97.5 89.48 97.13 89.97 97.42 90.2 97.79 89.71"/><polygon class="cls-6" points="98.45 88.83 98.16 88.6 97.79 89.09 98.08 89.32 98.45 88.83"/><polygon class="cls-6" points="99.11 87.94 98.81 87.73 98.44 88.22 98.74 88.44 99.11 87.94"/><polygon class="cls-4" points="95.75 89.14 93.61 91.5 96.28 94.02 98.58 91.48 95.75 89.14"/><polygon class="cls-6" points="95.62 92.21 95.35 91.96 94.94 92.42 95.2 92.67 95.62 92.21"/><polygon class="cls-6" points="96.36 91.4 96.08 91.15 95.67 91.61 95.94 91.85 96.36 91.4"/><polygon class="cls-6" points="97.1 90.58 96.82 90.35 96.41 90.8 96.69 91.04 97.1 90.58"/><path class="cls-4" d="M93.61,91.5a23.69,23.69,0,0,1-2.27,2.21l2.48,2.71A25.34,25.34,0,0,0,96.28,94Z"/><polygon class="cls-6" points="93.31 94.58 93.05 94.32 92.6 94.73 92.85 95 93.31 94.58"/><polygon class="cls-6" points="94.12 93.84 93.86 93.58 93.41 93.99 93.67 94.25 94.12 93.84"/><polygon class="cls-6" points="94.87 93.03 94.6 92.78 94.19 93.23 94.45 93.49 94.87 93.03"/><polygon class="cls-4" points="91.34 93.71 90.16 94.78 89.58 95.32 88.94 95.8 91.23 98.67 91.92 98.15 92.55 97.57 93.82 96.42 91.34 93.71"/><path class="cls-6" d="M90.85,96.81l-.23-.28-.49.37.23.29C90.53,97.06,90.7,97,90.85,96.81Z"/><polygon class="cls-6" points="91.67 96.07 91.43 95.79 90.98 96.2 91.21 96.48 91.67 96.07"/><rect class="cls-5" x="91.83" y="95.22" width="0.61" height="0.37" transform="translate(-40.21 86.72) rotate(-42.24)"/><polygon class="cls-4" points="88.94 95.8 86.39 97.7 88.48 100.72 91.23 98.67 88.94 95.8"/><polygon class="cls-6" points="88.2 98.81 87.99 98.51 87.5 98.87 87.71 99.17 88.2 98.81"/><polygon class="cls-6" points="89.09 98.14 88.86 97.85 88.38 98.22 88.59 98.51 89.09 98.14"/><polygon class="cls-6" points="89.97 97.48 89.74 97.2 89.25 97.56 89.47 97.85 89.97 97.48"/><path class="cls-4" d="M86.4,97.7c-.86.63-1.8,1.12-2.7,1.69l1.88,3.16c1-.61,2-1.15,2.9-1.83Z"/><polygon class="cls-6" points="85.44 100.64 85.25 100.32 84.73 100.64 84.92 100.96 85.44 100.64"/><polygon class="cls-6" points="86.39 100.06 86.19 99.76 85.66 100.07 85.86 100.38 86.39 100.06"/><path class="cls-6" d="M87.31,99.47l-.21-.3a4.39,4.39,0,0,1-.5.34l.2.3A3.48,3.48,0,0,0,87.31,99.47Z"/><path class="cls-4" d="M83.7,99.39l-1.35.83c-.46.26-.95.47-1.43.7l1.65,3.28c.52-.25,1-.48,1.54-.76l1.47-.89Z"/><polygon class="cls-6" points="82.58 102.31 82.41 101.98 81.86 102.25 82.03 102.57 82.58 102.31"/><path class="cls-6" d="M83.55,101.78l-.18-.32a5.48,5.48,0,0,1-.52.31l.17.32A3.5,3.5,0,0,0,83.55,101.78Z"/><polygon class="cls-6" points="84.49 101.21 84.31 100.9 83.79 101.21 83.97 101.53 84.49 101.21"/><path class="cls-4" d="M80.92,100.92c-1,.46-1.9.94-2.87,1.37l1.42,3.39c1-.47,2.07-1,3.1-1.48Z"/><polygon class="cls-6" points="79.59 103.74 79.45 103.41 78.9 103.67 79.04 104.01 79.59 103.74"/><polygon class="cls-6" points="80.59 103.27 80.43 102.93 79.88 103.2 80.03 103.53 80.59 103.27"/><rect class="cls-5" x="80.92" y="102.57" width="0.61" height="0.37" transform="translate(-37.26 46.92) rotate(-26.44)"/><polygon class="cls-4" points="78.05 102.29 75.07 103.39 76.25 106.86 79.47 105.68 78.05 102.29"/><polygon class="cls-6" points="76.51 104.95 76.39 104.6 75.81 104.81 75.93 105.16 76.51 104.95"/><polygon class="cls-6" points="77.55 104.57 77.41 104.23 76.84 104.44 76.97 104.78 77.55 104.57"/><polygon class="cls-6" points="78.58 104.19 78.44 103.85 77.86 104.06 78 104.4 78.58 104.19"/><path class="cls-4" d="M75.07,103.38a21.66,21.66,0,0,1-3,.91l.93,3.55a24.89,24.89,0,0,0,3.29-1Z"/><polygon class="cls-6" points="73.36 105.98 73.26 105.62 72.67 105.77 72.77 106.13 73.36 105.98"/><polygon class="cls-6" points="74.43 105.7 74.32 105.35 73.73 105.5 73.83 105.85 74.43 105.7"/><polygon class="cls-6" points="75.47 105.33 75.35 104.98 74.78 105.19 74.89 105.54 75.47 105.33"/><path class="cls-4" d="M72,104.29l-1.54.4a10.71,10.71,0,0,1-1.55.33l.68,3.61a13.56,13.56,0,0,0,1.68-.36l1.66-.43Z"/><path class="cls-6" d="M70.15,106.8l-.08-.36a3.86,3.86,0,0,1-.59.12l.07.36A4.25,4.25,0,0,0,70.15,106.8Z"/><polygon class="cls-6" points="71.22 106.53 71.14 106.17 70.54 106.32 70.62 106.68 71.22 106.53"/><polygon class="cls-6" points="72.28 106.25 72.19 105.9 71.6 106.05 71.69 106.41 72.28 106.25"/><polygon class="cls-4" points="68.94 105.02 65.79 105.5 66.23 109.15 69.62 108.63 68.94 105.02"/><polygon class="cls-6" points="66.88 107.33 66.83 106.96 66.22 107.05 66.27 107.42 66.88 107.33"/><polygon class="cls-6" points="67.97 107.16 67.91 106.8 67.31 106.89 67.36 107.25 67.97 107.16"/><polygon class="cls-6" points="69.06 106.99 68.99 106.63 68.39 106.72 68.45 107.08 69.06 106.99"/><path class="cls-4" d="M65.79,105.5l-.78.12c-.27,0-.53,0-.8,0l-1.59.08.19,3.66,1.72-.08.85,0,.85-.13Z"/><polygon class="cls-6" points="63.58 107.67 63.56 107.3 62.95 107.33 62.97 107.7 63.58 107.67"/><polygon class="cls-6" points="64.69 107.61 64.65 107.25 64.04 107.28 64.07 107.64 64.69 107.61"/><polygon class="cls-6" points="65.78 107.49 65.74 107.13 65.13 107.22 65.17 107.58 65.78 107.49"/><polygon class="cls-4" points="62.62 105.75 61.04 105.83 60.24 105.87 59.45 105.83 59.38 109.5 60.24 109.54 61.1 109.5 62.81 109.41 62.62 105.75"/><polygon class="cls-6" points="60.27 107.83 60.27 107.47 59.66 107.44 59.66 107.81 60.27 107.83"/><polygon class="cls-6" points="61.38 107.78 61.37 107.41 60.76 107.44 60.76 107.81 61.38 107.78"/><polygon class="cls-6" points="62.47 107.72 62.46 107.36 61.85 107.39 61.86 107.75 62.47 107.72"/><polygon class="cls-4" points="59.45 105.83 56.27 105.67 55.96 109.33 59.38 109.5 59.45 105.83"/><polygon class="cls-6" points="56.96 107.67 56.99 107.3 56.38 107.27 56.35 107.64 56.96 107.67"/><polygon class="cls-6" points="58.06 107.73 58.08 107.36 57.47 107.33 57.45 107.69 58.06 107.73"/><polygon class="cls-6" points="59.16 107.78 59.17 107.41 58.56 107.38 58.55 107.75 59.16 107.78"/><path class="cls-4" d="M56.27,105.67c-.26,0-.53,0-.79,0l-.79-.12-1.57-.24-.56,3.63,1.69.26.85.13.86,0Z"/><polygon class="cls-6" points="53.67 107.33 53.72 106.97 53.12 106.88 53.06 107.24 53.67 107.33"/><polygon class="cls-6" points="54.76 107.5 54.8 107.14 54.2 107.04 54.15 107.41 54.76 107.5"/><path class="cls-6" d="M55.85,107.61l0-.36c-.21,0-.41,0-.61,0l0,.36C55.44,107.6,55.65,107.6,55.85,107.61Z"/><path class="cls-4" d="M53.12,105.26a25.18,25.18,0,0,1-3.12-.57l-.82,3.58a27.53,27.53,0,0,0,3.38.62Z"/><polygon class="cls-6" points="50.4 106.82 50.47 106.46 49.88 106.31 49.8 106.66 50.4 106.82"/><polygon class="cls-6" points="51.48 107 51.55 106.64 50.95 106.55 50.87 106.91 51.48 107"/><polygon class="cls-6" points="52.57 107.17 52.63 106.8 52.02 106.71 51.96 107.07 52.57 107.17"/><polygon class="cls-4" points="50 104.69 46.92 103.89 45.86 107.41 49.18 108.27 50 104.69"/><polygon class="cls-6" points="47.18 105.99 47.28 105.64 46.69 105.49 46.59 105.84 47.18 105.99"/><rect class="cls-5" x="47.82" y="105.71" width="0.37" height="0.61" transform="translate(-66.63 126.08) rotate(-75.57)"/><polygon class="cls-6" points="49.32 106.54 49.4 106.18 48.81 106.03 48.72 106.39 49.32 106.54"/><path class="cls-4" d="M46.92,103.9c-1-.3-2-.72-3-1.06l-1.3,3.43c1.08.38,2.14.82,3.24,1.14Z"/><polygon class="cls-6" points="44.03 104.97 44.16 104.63 43.58 104.42 43.45 104.76 44.03 104.97"/><polygon class="cls-6" points="45.07 105.35 45.19 105 44.61 104.79 44.49 105.14 45.07 105.35"/><path class="cls-6" d="M46.11,105.71l.11-.35a5.62,5.62,0,0,1-.58-.19l-.12.35C45.72,105.58,45.91,105.67,46.11,105.71Z"/><path class="cls-4" d="M43.92,102.84l-1.49-.55c-.49-.2-1-.45-1.44-.68L39.46,105c.51.24,1,.5,1.55.73l1.61.59Z"/><polygon class="cls-6" points="40.95 103.77 41.09 103.44 40.54 103.17 40.39 103.5 40.95 103.77"/><path class="cls-6" d="M42,104.21l.14-.34a5.59,5.59,0,0,1-.57-.22l-.14.33A4,4,0,0,0,42,104.21Z"/><polygon class="cls-6" points="42.99 104.59 43.12 104.25 42.55 104.04 42.41 104.38 42.99 104.59"/><path class="cls-4" d="M41,101.61c-1-.46-1.91-.9-2.85-1.39l-1.77,3.22c1,.53,2.06,1,3.09,1.51Z"/><polygon class="cls-6" points="37.96 102.33 38.13 102.01 37.58 101.74 37.4 102.07 37.96 102.33"/><polygon class="cls-6" points="38.95 102.81 39.12 102.48 38.57 102.22 38.4 102.55 38.95 102.81"/><polygon class="cls-6" points="39.94 103.29 40.1 102.96 39.55 102.69 39.39 103.02 39.94 103.29"/><polygon class="cls-4" points="38.14 100.22 35.42 98.57 33.44 101.66 36.37 103.44 38.14 100.22"/><polygon class="cls-6" points="35.09 100.67 35.29 100.36 34.77 100.04 34.57 100.35 35.09 100.67"/><polygon class="cls-6" points="36.04 101.24 36.22 100.92 35.7 100.61 35.51 100.92 36.04 101.24"/><polygon class="cls-6" points="36.98 101.81 37.16 101.49 36.63 101.17 36.45 101.49 36.98 101.81"/><path class="cls-4" d="M35.42,98.57a23.31,23.31,0,0,1-2.6-1.82l-2.2,3a28.94,28.94,0,0,0,2.82,2Z"/><polygon class="cls-6" points="32.33 98.84 32.55 98.54 32.06 98.18 31.84 98.47 32.33 98.84"/><polygon class="cls-6" points="33.22 99.5 33.42 99.2 32.93 98.83 32.72 99.14 33.22 99.5"/><polygon class="cls-6" points="34.14 100.09 34.34 99.78 33.82 99.47 33.62 99.77 34.14 100.09"/><polygon class="cls-4" points="32.82 96.75 31.54 95.8 30.91 95.32 30.32 94.78 27.93 97.57 28.57 98.15 29.25 98.67 30.63 99.7 32.82 96.75"/><polygon class="cls-6" points="29.68 96.86 29.91 96.57 29.46 96.16 29.22 96.44 29.68 96.86"/><polygon class="cls-6" points="30.56 97.52 30.79 97.23 30.3 96.86 30.07 97.15 30.56 97.52"/><polygon class="cls-6" points="31.44 98.18 31.66 97.88 31.17 97.52 30.95 97.81 31.44 98.18"/><polygon class="cls-4" points="30.32 94.78 27.97 92.65 25.39 95.26 27.93 97.57 30.32 94.78"/><polygon class="cls-6" points="27.23 94.63 27.48 94.36 27.02 93.95 26.77 94.21 27.23 94.63"/><polygon class="cls-6" points="28.04 95.37 28.29 95.1 27.84 94.69 27.59 94.95 28.04 95.37"/><polygon class="cls-6" points="28.86 96.11 29.1 95.83 28.64 95.42 28.4 95.69 28.86 96.11"/><path class="cls-4" d="M28,92.65c-.77-.73-1.44-1.56-2.17-2.33l-2.75,2.43c.79.84,1.52,1.72,2.34,2.51Z"/><polygon class="cls-6" points="24.91 92.26 25.18 92.01 24.77 91.56 24.5 91.8 24.91 92.26"/><polygon class="cls-6" points="25.65 93.08 25.92 92.82 25.5 92.37 25.24 92.62 25.65 93.08"/><path class="cls-6" d="M26.4,93.88l.26-.26a5.77,5.77,0,0,1-.42-.44l-.26.25A4.47,4.47,0,0,0,26.4,93.88Z"/><polygon class="cls-4" points="25.8 90.32 24.73 89.14 23.78 87.87 20.87 90.11 21.9 91.48 23.05 92.75 25.8 90.32"/><polygon class="cls-6" points="22.73 89.76 23.02 89.53 22.66 89.04 22.37 89.27 22.73 89.76"/><path class="cls-6" d="M23.42,90.62l.28-.23a4.42,4.42,0,0,1-.39-.47l-.28.23A3.47,3.47,0,0,0,23.42,90.62Z"/><polygon class="cls-6" points="24.16 91.44 24.44 91.19 24.03 90.74 23.75 90.98 24.16 91.44"/><path class="cls-4" d="M23.78,87.87c-.63-.86-1.3-1.68-1.89-2.56l-3.05,2c.63,1,1.35,1.84,2,2.76Z"/><path class="cls-6" d="M20.75,87.11l.3-.21c-.12-.17-.25-.33-.36-.5l-.3.21C20.5,86.78,20.63,86.94,20.75,87.11Z"/><polygon class="cls-6" points="21.41 87.99 21.71 87.77 21.34 87.28 21.04 87.5 21.41 87.99"/><polygon class="cls-6" points="22.07 88.87 22.36 88.65 22 88.16 21.7 88.38 22.07 88.87"/><polygon class="cls-4" points="21.89 85.31 20.24 82.59 17.05 84.41 18.84 87.35 21.89 85.31"/><polygon class="cls-6" points="18.98 84.3 19.3 84.11 18.98 83.59 18.66 83.78 18.98 84.3"/><rect class="cls-5" x="19.37" y="84.58" width="0.37" height="0.61" transform="translate(-42.08 23.33) rotate(-32.07)"/><polygon class="cls-6" points="20.13 86.19 20.43 85.98 20.12 85.46 19.81 85.66 20.13 86.19"/><path class="cls-4" d="M20.24,82.59a25.91,25.91,0,0,1-1.46-2.82l-3.3,1.6a26.53,26.53,0,0,0,1.58,3Z"/><polygon class="cls-6" points="17.39 81.4 17.71 81.24 17.45 80.69 17.12 80.85 17.39 81.4"/><polygon class="cls-6" points="17.86 82.4 18.19 82.22 17.92 81.67 17.6 81.84 17.86 82.4"/><polygon class="cls-6" points="18.41 83.35 18.73 83.17 18.41 82.65 18.09 82.83 18.41 83.35"/><path class="cls-4" d="M18.78,79.77a25.14,25.14,0,0,1-1.3-2.9l-3.4,1.37a26.47,26.47,0,0,0,1.4,3.13Z"/><polygon class="cls-6" points="15.96 78.41 16.29 78.27 16.08 77.69 15.74 77.83 15.96 78.41"/><polygon class="cls-6" points="16.43 79.41 16.76 79.26 16.5 78.71 16.16 78.86 16.43 79.41"/><polygon class="cls-6" points="16.9 80.4 17.23 80.24 16.97 79.69 16.64 79.85 16.9 80.4"/><polygon class="cls-4" points="17.48 76.87 16.39 73.89 12.9 75.01 14.07 78.24 17.48 76.87"/><polygon class="cls-6" points="14.82 75.3 15.16 75.18 14.95 74.61 14.6 74.72 14.82 75.3"/><rect class="cls-5" x="15.08" y="75.68" width="0.37" height="0.61" transform="translate(-25.24 9.91) rotate(-20.15)"/><polygon class="cls-6" points="15.57 77.37 15.91 77.23 15.71 76.66 15.36 76.79 15.57 77.37"/><path class="cls-4" d="M16.39,73.89c-.34-1-.55-2-.83-3.07L12,71.7c.3,1.1.53,2.23.9,3.31Z"/><polygon class="cls-6" points="13.87 72.13 14.22 72.03 14.07 71.44 13.71 71.53 13.87 72.13"/><polygon class="cls-6" points="14.14 73.19 14.5 73.09 14.34 72.5 13.99 72.6 14.14 73.19"/><path class="cls-6" d="M14.43,74.25l.35-.11a3.83,3.83,0,0,1-.16-.58l-.36.1A5.72,5.72,0,0,0,14.43,74.25Z"/><path class="cls-4" d="M15.56,70.82l-.39-1.54c-.12-.51-.17-1-.26-1.56l-3.62.62c.1.57.15,1.14.28,1.7L12,71.7Z"/><polygon class="cls-6" points="13.1 68.9 13.46 68.83 13.37 68.23 13.01 68.29 13.1 68.9"/><path class="cls-6" d="M13.32,70l.36-.07c0-.2-.12-.4-.15-.6l-.36.07C13.21,69.59,13.27,69.78,13.32,70Z"/><polygon class="cls-6" points="13.59 71.05 13.95 70.96 13.8 70.37 13.44 70.45 13.59 71.05"/><polygon class="cls-4" points="14.91 67.72 14.43 64.57 10.77 64.95 11.29 68.34 14.91 67.72"/><polygon class="cls-6" points="12.6 65.63 12.96 65.58 12.87 64.98 12.51 65.02 12.6 65.63"/><polygon class="cls-6" points="12.77 66.72 13.13 66.66 13.04 66.06 12.67 66.11 12.77 66.72"/><polygon class="cls-6" points="12.93 67.8 13.29 67.74 13.2 67.14 12.84 67.19 12.93 67.8"/><polygon class="cls-4" points="14.43 64.57 14.26 61.4 10.59 61.52 10.77 64.95 14.43 64.57"/><polygon class="cls-6" points="12.34 62.32 12.71 62.3 12.68 61.69 12.31 61.71 12.34 62.32"/><polygon class="cls-6" points="12.4 63.42 12.76 63.4 12.73 62.79 12.37 62.81 12.4 63.42"/><polygon class="cls-6" points="12.45 64.52 12.82 64.49 12.79 63.88 12.42 63.91 12.45 64.52"/><polygon class="cls-4" points="14.26 61.4 14.18 59.81 14.26 58.22 10.59 58.09 10.51 59.81 10.59 61.52 14.26 61.4"/><polygon class="cls-6" points="12.26 59.01 12.62 59.02 12.65 58.41 12.29 58.4 12.26 59.01"/><path class="cls-6" d="M12.23,60.11h.37a3.11,3.11,0,0,1,0-.61h-.37A3.11,3.11,0,0,0,12.23,60.11Z"/><polygon class="cls-6" points="12.29 61.21 12.65 61.2 12.62 60.59 12.25 60.6 12.29 61.21"/><polygon class="cls-4" points="14.26 58.22 14.43 55.04 10.77 54.67 10.59 58.09 14.26 58.22"/><polygon class="cls-6" points="12.42 55.7 12.79 55.73 12.82 55.12 12.45 55.09 12.42 55.7"/><polygon class="cls-6" points="12.37 56.8 12.73 56.83 12.76 56.22 12.4 56.19 12.37 56.8"/><polygon class="cls-6" points="12.31 57.9 12.68 57.92 12.71 57.31 12.34 57.29 12.31 57.9"/><polygon class="cls-4" points="14.43 55.04 14.91 51.9 11.29 51.27 10.77 54.67 14.43 55.04"/><polygon class="cls-6" points="12.84 52.42 13.2 52.47 13.3 51.87 12.93 51.81 12.84 52.42"/><polygon class="cls-6" points="12.68 53.51 13.04 53.55 13.13 52.95 12.77 52.9 12.68 53.51"/><polygon class="cls-6" points="12.51 54.59 12.87 54.63 12.97 54.03 12.6 53.99 12.51 54.59"/><path class="cls-4" d="M14.91,51.9c.09-.52.14-1,.26-1.57l.39-1.54L12,47.92l-.43,1.66c-.13.56-.18,1.13-.28,1.69Z"/><polygon class="cls-6" points="13.44 49.16 13.8 49.24 13.95 48.65 13.59 48.56 13.44 49.16"/><path class="cls-6" d="M13.17,50.23l.36.07c0-.2.1-.39.15-.59l-.36-.08C13.27,49.83,13.21,50,13.17,50.23Z"/><polygon class="cls-6" points="13.01 51.32 13.37 51.38 13.46 50.78 13.1 50.71 13.01 51.32"/><path class="cls-4" d="M15.56,48.79c.28-1,.49-2.06.83-3.06L12.9,44.61c-.37,1.08-.6,2.21-.9,3.31Z"/><path class="cls-6" d="M14.27,46l.35.1a4.23,4.23,0,0,1,.17-.58l-.35-.11A4,4,0,0,0,14.27,46Z"/><polygon class="cls-6" points="13.99 47.02 14.34 47.11 14.5 46.52 14.14 46.42 13.99 47.02"/><polygon class="cls-6" points="13.72 48.08 14.07 48.17 14.22 47.58 13.87 47.49 13.72 48.08"/><polygon class="cls-4" points="16.39 45.73 17.48 42.74 14.07 41.38 12.9 44.61 16.39 45.73"/><polygon class="cls-6" points="15.36 42.82 15.71 42.95 15.92 42.38 15.57 42.24 15.36 42.82"/><rect class="cls-5" x="14.96" y="43.45" width="0.61" height="0.37" transform="translate(-30.96 43.52) rotate(-70.59)"/><polygon class="cls-6" points="14.61 44.89 14.96 45.01 15.16 44.43 14.82 44.31 14.61 44.89"/><path class="cls-4" d="M17.48,42.74a26.77,26.77,0,0,1,1.3-2.9l-3.3-1.59a26.47,26.47,0,0,0-1.4,3.13Z"/><polygon class="cls-6" points="16.64 39.77 16.97 39.92 17.24 39.37 16.91 39.21 16.64 39.77"/><polygon class="cls-6" points="16.16 40.76 16.5 40.91 16.76 40.36 16.43 40.2 16.16 40.76"/><polygon class="cls-6" points="15.75 41.78 16.09 41.92 16.3 41.34 15.96 41.2 15.75 41.78"/><path class="cls-4" d="M18.78,39.84A27.88,27.88,0,0,1,20.24,37L17.06,35.2a27.52,27.52,0,0,0-1.58,3Z"/><polygon class="cls-6" points="18.09 36.79 18.41 36.96 18.73 36.44 18.41 36.26 18.09 36.79"/><polygon class="cls-6" points="17.6 37.77 17.92 37.94 18.19 37.39 17.86 37.22 17.6 37.77"/><polygon class="cls-6" points="17.12 38.76 17.45 38.92 17.72 38.38 17.39 38.21 17.12 38.76"/><polygon class="cls-4" points="20.24 37.02 21.89 34.31 18.84 32.27 17.05 35.2 20.24 37.02"/><polygon class="cls-6" points="19.81 33.95 20.12 34.15 20.44 33.63 20.13 33.43 19.81 33.95"/><rect class="cls-5" x="19.25" y="34.55" width="0.61" height="0.37" transform="translate(-20.28 33.37) rotate(-58.67)"/><polygon class="cls-6" points="18.67 35.84 18.98 36.02 19.3 35.5 18.99 35.31 18.67 35.84"/><path class="cls-4" d="M21.89,34.31c.59-.88,1.26-1.71,1.89-2.56L20.87,29.5c-.68.93-1.4,1.82-2,2.77Z"/><polygon class="cls-6" points="21.7 31.23 22 31.45 22.36 30.96 22.07 30.74 21.7 31.23"/><polygon class="cls-6" points="21.04 32.12 21.34 32.33 21.71 31.84 21.41 31.63 21.04 32.12"/><path class="cls-6" d="M20.39,33l.3.21.36-.49-.3-.21C20.63,32.67,20.5,32.83,20.39,33Z"/><polygon class="cls-4" points="23.78 31.75 24.73 30.47 25.8 29.3 23.05 26.86 21.9 28.13 20.87 29.5 23.78 31.75"/><polygon class="cls-6" points="23.75 28.63 24.03 28.87 24.44 28.42 24.17 28.18 23.75 28.63"/><path class="cls-6" d="M23,29.46l.28.24a6.08,6.08,0,0,1,.39-.47L23.42,29A4.42,4.42,0,0,0,23,29.46Z"/><polygon class="cls-6" points="22.37 30.34 22.66 30.57 23.02 30.08 22.74 29.85 22.37 30.34"/><path class="cls-4" d="M25.8,29.3c.73-.77,1.4-1.6,2.17-2.33l-2.58-2.62c-.82.79-1.55,1.68-2.34,2.51Z"/><path class="cls-6" d="M26,26.18l.26.26a4.57,4.57,0,0,1,.43-.45l-.26-.26A6,6,0,0,0,26,26.18Z"/><polygon class="cls-6" points="25.24 27 25.51 27.25 25.92 26.79 25.65 26.54 25.24 27"/><polygon class="cls-6" points="24.5 27.81 24.77 28.05 25.18 27.6 24.91 27.35 24.5 27.81"/><polygon class="cls-4" points="27.97 26.97 30.32 24.83 27.93 22.04 25.39 24.35 27.97 26.97"/><polygon class="cls-6" points="28.41 23.92 28.65 24.19 29.1 23.78 28.86 23.5 28.41 23.92"/><polygon class="cls-6" points="27.59 24.66 27.84 24.93 28.29 24.52 28.04 24.25 27.59 24.66"/><polygon class="cls-6" points="26.77 25.4 27.03 25.66 27.48 25.25 27.23 24.99 26.77 25.4"/><polygon class="cls-4" points="30.32 24.83 30.91 24.3 31.54 23.82 32.82 22.87 30.63 19.92 29.25 20.95 28.57 21.47 27.93 22.04 30.32 24.83"/><polygon class="cls-6" points="30.95 21.8 31.18 22.09 31.67 21.73 31.45 21.44 30.95 21.8"/><polygon class="cls-6" points="30.07 22.47 30.3 22.75 30.79 22.39 30.56 22.1 30.07 22.47"/><polygon class="cls-6" points="29.23 23.17 29.46 23.45 29.92 23.04 29.68 22.76 29.23 23.17"/><path class="cls-4" d="M32.82,22.87a23.31,23.31,0,0,1,2.6-1.82l-2-3.09a27.29,27.29,0,0,0-2.82,2Z"/><polygon class="cls-6" points="33.62 19.84 33.83 20.15 34.35 19.83 34.15 19.52 33.62 19.84"/><polygon class="cls-6" points="32.73 20.48 32.94 20.78 33.42 20.41 33.22 20.11 32.73 20.48"/><polygon class="cls-6" points="31.84 21.14 32.06 21.43 32.55 21.07 32.34 20.77 31.84 21.14"/><polygon class="cls-4" points="35.42 21.05 38.14 19.4 36.37 16.18 33.44 17.96 35.42 21.05"/><polygon class="cls-6" points="36.46 18.12 36.64 18.44 37.16 18.12 36.98 17.8 36.46 18.12"/><polygon class="cls-6" points="35.51 18.69 35.7 19.01 36.23 18.69 36.04 18.37 35.51 18.69"/><polygon class="cls-6" points="34.57 19.26 34.77 19.57 35.29 19.26 35.1 18.95 34.57 19.26"/><path class="cls-4" d="M38.14,19.4c.94-.49,1.9-.93,2.85-1.4l-1.53-3.33c-1,.5-2.07,1-3.09,1.51Z"/><polygon class="cls-6" points="39.4 16.59 39.55 16.92 40.1 16.66 39.95 16.32 39.4 16.59"/><polygon class="cls-6" points="38.4 17.07 38.57 17.4 39.12 17.13 38.95 16.8 38.4 17.07"/><polygon class="cls-6" points="37.41 17.55 37.59 17.87 38.13 17.61 37.96 17.28 37.41 17.55"/><path class="cls-4" d="M41,18c.48-.22.95-.47,1.44-.68l1.49-.54-1.3-3.43L41,13.94c-.53.22-1,.49-1.55.73Z"/><polygon class="cls-6" points="42.42 15.24 42.55 15.58 43.13 15.37 42.99 15.03 42.42 15.24"/><path class="cls-6" d="M41.39,15.63l.14.34a5.65,5.65,0,0,1,.57-.23L42,15.4A5.65,5.65,0,0,0,41.39,15.63Z"/><polygon class="cls-6" points="40.4 16.11 40.55 16.44 41.1 16.18 40.95 15.84 40.4 16.11"/><path class="cls-4" d="M43.92,16.78c1-.35,2-.77,3-1.06l-1.06-3.51c-1.1.31-2.16.76-3.24,1.14Z"/><path class="cls-6" d="M45.53,14.1l.11.35a4.43,4.43,0,0,1,.58-.2l-.11-.35A4.43,4.43,0,0,0,45.53,14.1Z"/><polygon class="cls-6" points="44.49 14.48 44.62 14.82 45.19 14.61 45.07 14.27 44.49 14.48"/><polygon class="cls-6" points="43.46 14.86 43.59 15.2 44.16 14.99 44.04 14.64 43.46 14.86"/><polygon class="cls-4" points="46.92 15.72 50 14.93 49.18 11.35 45.86 12.21 46.92 15.72"/><polygon class="cls-6" points="48.73 13.23 48.82 13.59 49.41 13.43 49.32 13.07 48.73 13.23"/><rect class="cls-5" x="47.7" y="13.42" width="0.61" height="0.37" transform="translate(-1.89 13.04) rotate(-15.17)"/><polygon class="cls-6" points="46.59 13.78 46.7 14.13 47.29 13.98 47.19 13.62 46.59 13.78"/><path class="cls-4" d="M50,14.93a25.21,25.21,0,0,1,3.12-.58l-.56-3.62a27.53,27.53,0,0,0-3.38.62Z"/><polygon class="cls-6" points="51.97 12.54 52.03 12.9 52.63 12.81 52.58 12.45 51.97 12.54"/><polygon class="cls-6" points="50.88 12.71 50.95 13.07 51.55 12.98 51.48 12.62 50.88 12.71"/><polygon class="cls-6" points="49.8 12.95 49.88 13.31 50.48 13.16 50.4 12.8 49.8 12.95"/><path class="cls-4" d="M53.12,14.35l1.57-.24.79-.12.79,0L56,10.29c-.29,0-.57,0-.86.05l-.85.13-1.69.26Z"/><path class="cls-6" d="M55.24,12l0,.37c.2,0,.41,0,.61,0l0-.37C55.65,12,55.45,12,55.24,12Z"/><polygon class="cls-6" points="54.15 12.21 54.2 12.57 54.8 12.48 54.76 12.12 54.15 12.21"/><polygon class="cls-6" points="53.07 12.38 53.12 12.74 53.72 12.65 53.67 12.28 53.07 12.38"/><polygon class="cls-4" points="56.27 13.95 59.45 13.79 59.38 10.12 55.96 10.29 56.27 13.95"/><polygon class="cls-6" points="58.55 11.87 58.57 12.23 59.18 12.2 59.17 11.84 58.55 11.87"/><polygon class="cls-6" points="57.45 11.92 57.47 12.29 58.08 12.26 58.07 11.89 57.45 11.92"/><polygon class="cls-6" points="56.35 11.98 56.38 12.34 56.99 12.31 56.97 11.95 56.35 11.98"/><polygon class="cls-4" points="59.45 13.79 60.24 13.75 61.04 13.79 62.62 13.87 62.81 10.2 61.1 10.12 60.24 10.08 59.38 10.12 59.45 13.79"/><polygon class="cls-6" points="61.87 11.86 61.85 12.23 62.46 12.26 62.48 11.89 61.87 11.86"/><polygon class="cls-6" points="60.76 11.81 60.76 12.18 61.37 12.21 61.38 11.84 60.76 11.81"/><polygon class="cls-6" points="59.66 11.81 59.67 12.18 60.28 12.15 60.28 11.78 59.66 11.81"/><path class="cls-4" d="M62.62,13.87l1.59.08.8,0,.78.12.44-3.64-.85-.13c-.28,0-.57,0-.85-.05l-1.72-.09Z"/><polygon class="cls-6" points="65.18 12.03 65.14 12.4 65.74 12.49 65.78 12.13 65.18 12.03"/><polygon class="cls-6" points="64.07 11.97 64.05 12.34 64.66 12.37 64.69 12.01 64.07 11.97"/><polygon class="cls-6" points="62.98 11.92 62.95 12.29 63.56 12.32 63.59 11.95 62.98 11.92"/><polygon class="cls-4" points="65.79 14.11 68.94 14.59 69.62 10.99 66.23 10.47 65.79 14.11"/><polygon class="cls-6" points="68.45 12.53 68.39 12.89 69 12.99 69.06 12.63 68.45 12.53"/><polygon class="cls-6" points="67.36 12.37 67.31 12.73 67.91 12.82 67.97 12.46 67.36 12.37"/><polygon class="cls-6" points="66.28 12.2 66.23 12.56 66.83 12.66 66.88 12.29 66.28 12.2"/><path class="cls-4" d="M68.94,14.59a12.29,12.29,0,0,1,1.55.34l1.54.4L73,11.78l-1.66-.43A12,12,0,0,0,69.62,11Z"/><polygon class="cls-6" points="71.69 13.21 71.61 13.57 72.2 13.72 72.29 13.37 71.69 13.21"/><polygon class="cls-6" points="70.63 12.94 70.55 13.3 71.14 13.45 71.22 13.09 70.63 12.94"/><path class="cls-6" d="M69.55,12.7l-.07.36a4.25,4.25,0,0,1,.6.12l.08-.36A4.11,4.11,0,0,0,69.55,12.7Z"/><path class="cls-4" d="M72,15.33a21.62,21.62,0,0,1,3,.9l1.18-3.47a23.47,23.47,0,0,0-3.29-1Z"/><polygon class="cls-6" points="74.89 14.08 74.78 14.43 75.36 14.64 75.47 14.29 74.89 14.08"/><polygon class="cls-6" points="73.84 13.76 73.73 14.12 74.32 14.27 74.43 13.92 73.84 13.76"/><polygon class="cls-6" points="72.77 13.49 72.67 13.84 73.27 14 73.37 13.64 72.77 13.49"/><polygon class="cls-4" points="75.07 16.23 78.05 17.32 79.47 13.94 76.25 12.76 75.07 16.23"/><polygon class="cls-6" points="78.01 15.21 77.87 15.56 78.44 15.77 78.58 15.43 78.01 15.21"/><polygon class="cls-6" points="76.97 14.84 76.84 15.18 77.42 15.39 77.55 15.05 76.97 14.84"/><polygon class="cls-6" points="75.94 14.46 75.82 14.8 76.39 15.02 76.52 14.67 75.94 14.46"/><path class="cls-4" d="M78.05,17.32c1,.44,1.91.92,2.87,1.37l1.65-3.28c-1-.49-2-1-3.1-1.47Z"/><rect class="cls-5" x="81.04" y="16.56" width="0.37" height="0.61" transform="translate(30.79 82.73) rotate(-64.29)"/><polygon class="cls-6" points="80.04 16.09 79.89 16.42 80.44 16.68 80.59 16.35 80.04 16.09"/><polygon class="cls-6" points="79.05 15.61 78.9 15.95 79.45 16.21 79.6 15.88 79.05 15.61"/><path class="cls-4" d="M80.92,18.69c.48.24,1,.45,1.43.71l1.35.82,1.88-3.15-1.47-.89c-.5-.28-1-.51-1.54-.77Z"/><polygon class="cls-6" points="83.97 18.09 83.79 18.41 84.31 18.72 84.5 18.41 83.97 18.09"/><path class="cls-6" d="M83,17.52l-.17.33c.18.08.35.2.53.3l.18-.32C83.38,17.73,83.21,17.61,83,17.52Z"/><polygon class="cls-6" points="82.03 17.05 81.87 17.37 82.42 17.64 82.59 17.31 82.03 17.05"/><path class="cls-4" d="M83.7,20.22c.9.57,1.84,1.06,2.7,1.69l2.08-3c-.92-.68-1.94-1.21-2.9-1.82Z"/><path class="cls-6" d="M86.81,19.81l-.21.3c.18.11.35.22.51.34l.21-.3A4.11,4.11,0,0,0,86.81,19.81Z"/><polygon class="cls-6" points="85.86 19.23 85.67 19.55 86.19 19.86 86.39 19.55 85.86 19.23"/><polygon class="cls-6" points="84.92 18.66 84.73 18.98 85.25 19.3 85.45 18.98 84.92 18.66"/><polygon class="cls-4" points="86.39 21.91 88.94 23.82 91.23 20.95 88.48 18.89 86.39 21.91"/><polygon class="cls-6" points="89.48 21.77 89.25 22.06 89.74 22.42 89.97 22.14 89.48 21.77"/><polygon class="cls-6" points="88.59 21.11 88.38 21.4 88.87 21.77 89.09 21.47 88.59 21.11"/><polygon class="cls-6" points="87.71 20.45 87.5 20.75 87.99 21.11 88.21 20.82 87.71 20.45"/><polygon class="cls-4" points="88.94 23.82 89.58 24.3 90.16 24.83 91.34 25.9 93.82 23.2 92.55 22.04 91.92 21.47 91.23 20.95 88.94 23.82"/><rect class="cls-5" x="91.95" y="23.91" width="0.37" height="0.61" transform="translate(12.93 77.15) rotate(-48.48)"/><polygon class="cls-6" points="91.22 23.13 90.98 23.41 91.43 23.82 91.67 23.55 91.22 23.13"/><path class="cls-6" d="M90.37,22.43l-.23.29c.16.12.33.24.48.37l.24-.28C90.7,22.67,90.53,22.56,90.37,22.43Z"/><path class="cls-4" d="M91.34,25.9a25.05,25.05,0,0,1,2.27,2.22l2.67-2.53a26.46,26.46,0,0,0-2.46-2.39Z"/><polygon class="cls-6" points="94.46 26.13 94.2 26.39 94.61 26.84 94.87 26.59 94.46 26.13"/><polygon class="cls-6" points="93.67 25.36 93.41 25.63 93.86 26.04 94.12 25.78 93.67 25.36"/><polygon class="cls-6" points="92.86 24.62 92.61 24.89 93.06 25.3 93.31 25.04 92.86 24.62"/><polygon class="cls-4" points="93.61 28.12 95.75 30.47 98.58 28.13 96.28 25.59 93.61 28.12"/><polygon class="cls-6" points="96.69 28.59 96.41 28.82 96.82 29.28 97.1 29.04 96.69 28.59"/><polygon class="cls-6" points="95.95 27.77 95.67 28.01 96.08 28.46 96.36 28.22 95.95 27.77"/><polygon class="cls-6" points="95.21 26.95 94.94 27.2 95.35 27.66 95.62 27.41 95.21 26.95"/><polygon class="cls-4" points="95.75 30.47 97.66 33.02 100.64 30.88 98.58 28.13 95.75 30.47"/><polygon class="cls-6" points="98.74 31.18 98.45 31.4 98.81 31.89 99.11 31.68 98.74 31.18"/><polygon class="cls-6" points="98.08 30.3 97.79 30.53 98.16 31.02 98.45 30.79 98.08 30.3"/><polygon class="cls-6" points="97.42 29.42 97.14 29.65 97.5 30.14 97.79 29.91 97.42 29.42"/><path class="cls-4" d="M97.66,33c.31.43.66.83.93,1.29l.82,1.36,3.13-1.93-.9-1.47c-.29-.49-.67-.93-1-1.39Z"/><polygon class="cls-6" points="100.64 33.9 100.33 34.1 100.65 34.62 100.96 34.42 100.64 33.9"/><polygon class="cls-6" points="100.07 32.95 99.76 33.16 100.08 33.68 100.39 33.48 100.07 32.95"/><polygon class="cls-6" points="99.41 32.07 99.11 32.29 99.47 32.78 99.78 32.57 99.41 32.07"/><path class="cls-4" d="M99.41,35.67l.83,1.35a11.12,11.12,0,0,1,.77,1.39l3.25-1.71a12.94,12.94,0,0,0-.83-1.5l-.89-1.46Z"/><path class="cls-6" d="M102.36,36.73l-.32.18a5.52,5.52,0,0,1,.28.54l.33-.17A4.77,4.77,0,0,0,102.36,36.73Z"/><polygon class="cls-6" points="101.79 35.79 101.47 35.97 101.79 36.49 102.11 36.31 101.79 35.79"/><polygon class="cls-6" points="101.22 34.85 100.9 35.04 101.22 35.56 101.54 35.37 101.22 34.85"/><polygon class="cls-4" points="101.01 38.41 102.39 41.28 105.75 39.8 104.26 36.7 101.01 38.41"/><polygon class="cls-6" points="103.82 39.71 103.48 39.86 103.75 40.41 104.08 40.26 103.82 39.71"/><polygon class="cls-6" points="103.34 38.71 103.01 38.88 103.27 39.43 103.61 39.27 103.34 38.71"/><polygon class="cls-6" points="102.86 37.72 102.54 37.89 102.8 38.44 103.13 38.28 102.86 37.72"/><path class="cls-4" d="M102.39,41.28a10.45,10.45,0,0,1,.61,1.46l.54,1.5L107,43l-.59-1.61a11,11,0,0,0-.66-1.58Z"/><rect class="cls-5" x="104.85" y="42.81" width="0.37" height="0.61" transform="translate(-8.47 40.14) rotate(-20.82)"/><polygon class="cls-6" points="104.72 41.73 104.38 41.87 104.59 42.44 104.93 42.3 104.72 41.73"/><path class="cls-6" d="M104.3,40.71l-.34.15a3.87,3.87,0,0,1,.25.55l.34-.14A5.62,5.62,0,0,0,104.3,40.71Z"/><path class="cls-4" d="M103.54,44.24a21.32,21.32,0,0,1,1,3l3.53-1A24.94,24.94,0,0,0,107,43Z"/><polygon class="cls-6" points="106.2 45.89 105.85 45.99 106 46.59 106.36 46.48 106.2 45.89"/><polygon class="cls-6" points="105.86 44.84 105.51 44.95 105.72 45.53 106.07 45.42 105.86 44.84"/><polygon class="cls-6" points="105.48 43.81 105.13 43.93 105.34 44.5 105.69 44.38 105.48 43.81"/><polygon class="cls-4" points="104.53 47.26 105.32 50.33 108.91 49.58 108.06 46.26 104.53 47.26"/><polygon class="cls-6" points="107.03 49.1 106.67 49.18 106.82 49.77 107.18 49.69 107.03 49.1"/><polygon class="cls-6" points="106.75 48.03 106.4 48.12 106.55 48.71 106.91 48.63 106.75 48.03"/><polygon class="cls-6" points="106.48 46.96 106.13 47.06 106.28 47.65 106.63 47.56 106.48 46.96"/><path class="cls-4" d="M105.32,50.33c.2,1,.33,2.1.5,3.14l3.63-.5c-.18-1.13-.32-2.27-.54-3.39Z"/><polygon class="cls-6" points="107.63 52.35 107.27 52.41 107.36 53.01 107.73 52.96 107.63 52.35"/><polygon class="cls-6" points="107.47 51.26 107.11 51.33 107.2 51.93 107.56 51.87 107.47 51.26"/><polygon class="cls-6" points="107.3 50.17 106.94 50.25 107.03 50.85 107.39 50.78 107.3 50.17"/><polygon class="cls-4" points="105.82 53.47 106.06 55.04 106.14 56.63 109.8 56.38 109.71 54.67 109.45 52.97 105.82 53.47"/><polygon class="cls-6" points="108.06 55.64 107.69 55.67 107.72 56.28 108.09 56.25 108.06 55.64"/><path class="cls-6" d="M108,54.54l-.37,0a4.07,4.07,0,0,1,.07.61l.36,0A4.2,4.2,0,0,0,108,54.54Z"/><polygon class="cls-6" points="107.8 53.45 107.44 53.5 107.53 54.1 107.89 54.06 107.8 53.45"/><polygon class="cls-4" points="106.14 56.63 106.3 59.81 109.97 59.81 109.8 56.38 106.14 56.63"/><polygon class="cls-6" points="108.23 58.95 107.86 58.96 107.89 59.57 108.26 59.56 108.23 58.95"/><polygon class="cls-6" points="108.17 57.85 107.8 57.86 107.83 58.47 108.2 58.46 108.17 57.85"/><rect class="cls-5" x="107.76" y="56.76" width="0.37" height="0.61" transform="translate(-3.38 6.92) rotate(-3.61)"/><path class="cls-3" d="M7.14,74.71h106.2s-3.72,14.07-13,22.8H20.17S10.16,87.5,7.14,74.71Z"/><polygon class="cls-3" points="7.55 73.66 11.97 73.66 10.95 70.27 7.55 73.66"/><polygon class="cls-3" points="112.81 73.66 108.39 73.66 109.47 70.33 112.81 73.66"/><rect class="cls-1" x="6.73" y="73.66" width="107.31" height="1.05"/><rect class="cls-1" x="19.8" y="97.51" width="81.62" height="1.05"/><path class="cls-1" d="M88.58,94.07h-2.3c-.13,0-.17,0-.17-.17,0-1.92,0-3.84,0-5.76A4.48,4.48,0,0,0,86,87.06a1.58,1.58,0,0,0-1.73-1.36,2.53,2.53,0,0,0-1.86.73,2.37,2.37,0,0,0-.64,1.51,4.78,4.78,0,0,0,0,.53V93.9c0,.14,0,.18-.17.18-.72,0-1.43,0-2.15,0-.13,0-.15,0-.15-.16V78.47a.77.77,0,0,1,0-.15h2.43c.07.08.05.18.05.28v5.15c0,.07,0,.17,0,.21s.13,0,.19-.09a4.57,4.57,0,0,1,2-.64,4.46,4.46,0,0,1,2.65.6,3.73,3.73,0,0,1,1.57,2,3.84,3.84,0,0,1,.3,1.42s0,0,0,0Z"/><path class="cls-1" d="M49.32,78.32a.37.37,0,0,1,0,.18V93.88c0,.15,0,.2-.19.2q-1,0-2.1,0c-.14,0-.17,0-.17-.18,0-5.19,0-10.38,0-15.58Z"/><path class="cls-1" d="M39.57,94.27a7,7,0,0,1-5.2-2.13,7.46,7.46,0,0,1-2-4,8.35,8.35,0,0,1,.6-5.12,6.91,6.91,0,0,1,5.54-4.18,7.36,7.36,0,0,1,6.61,2.31c.24.25.23.25,0,.5L43.73,83c-.09.09-.14.09-.22,0a5.28,5.28,0,0,0-2-1.44,4.87,4.87,0,0,0-6.72,3.71,5.84,5.84,0,0,0,.32,3.53,4.61,4.61,0,0,0,4.21,3,5,5,0,0,0,3.86-1.45l.41-.41c.06-.06.09-.06.15,0,.52.53,1,1.07,1.57,1.6a.09.09,0,0,1,0,.14,7.58,7.58,0,0,1-5.14,2.56A5.61,5.61,0,0,1,39.57,94.27Z"/><path class="cls-1" d="M58.23,93.45a4.16,4.16,0,0,1-1.55.7A4.31,4.31,0,0,1,53,93.41,4,4,0,0,1,51.56,91a5.75,5.75,0,0,1-.15-1.37c0-2,0-4,0-6,0-.17.05-.2.2-.2q1.05,0,2.1,0c.14,0,.18,0,.18.18,0,2,0,4,0,6a3.1,3.1,0,0,0,.23,1.24,1.47,1.47,0,0,0,1.27,1,2.76,2.76,0,0,0,1.91-.48,2.36,2.36,0,0,0,.94-2.06c0-1.88,0-3.75,0-5.63,0-.17,0-.2.2-.2.71,0,1.41,0,2.12,0,.13,0,.15,0,.15.16V93.93c0,.11,0,.15-.14.15H58.38c-.12,0-.16,0-.15-.14S58.23,93.63,58.23,93.45Z"/><path class="cls-1" d="M68.36,88.73a5.27,5.27,0,0,1,4.71-5.42,5.75,5.75,0,0,1,4.23,1.07c.26.19.49.42.73.63.06,0,.07.07,0,.13l-1.6,1.6c-.07.07-.11,0-.16,0a5.56,5.56,0,0,0-.67-.53,3.29,3.29,0,0,0-4,.39,3,3,0,0,0-.82,2.29,2.94,2.94,0,0,0,2.55,2.91A3.09,3.09,0,0,0,76,91l.31-.28c.06-.05.09,0,.14,0L78,92.35c.07.07.06.1,0,.16a5.65,5.65,0,0,1-3.69,1.74,5.56,5.56,0,0,1-4-1.17,5.29,5.29,0,0,1-1.95-3.36A5.5,5.5,0,0,1,68.36,88.73Z"/><path class="cls-1" d="M66,89.94c0,1.32,0,2.65,0,4,0,.14,0,.17-.17.16H63.73c-.15,0-.19,0-.19-.19q0-3.94,0-7.89c0-.25,0-.21-.22-.21-.46,0-.92,0-1.38,0-.11,0-.13,0-.13-.13V83.6c0-.11,0-.14.13-.13.48,0,1,0,1.43,0,.14,0,.17,0,.17-.17,0-1.07,0-2.15,0-3.23,0-.14,0-.17.18-.17h2.12c.15,0,.18,0,.18.19,0,1,0,2.1,0,3.14,0,.24,0,.24.25.24h1.61c.13,0,.16,0,.16.16,0,.67,0,1.35,0,2,0,.13,0,.15-.16.15H66.18c-.13,0-.17,0-.17.18C66,87.28,66,88.61,66,89.94Z"/><path class="cls-7" d="M73.79,90.61a1.85,1.85,0,1,1,1.85-1.84A1.83,1.83,0,0,1,73.79,90.61Z"/><polygon class="cls-3" points="60.39 14.72 61.69 17.36 64.61 17.79 62.5 19.85 63 22.75 60.39 21.38 57.78 22.75 58.27 19.85 56.16 17.79 59.08 17.36 60.39 14.72"/><path class="cls-3" d="M34,34.38c0-2.2,1.3-3.55,3-3.55a2.55,2.55,0,0,1,1.88.85l-.47.56a1.87,1.87,0,0,0-1.39-.64c-1.29,0-2.15,1.06-2.15,2.76s.82,2.8,2.11,2.8a2.07,2.07,0,0,0,1.59-.77l.48.54a2.63,2.63,0,0,1-2.1,1C35.29,37.92,34,36.6,34,34.38Z"/><path class="cls-3" d="M40.25,31h.87v6.1h3v.74H40.25Z"/><path class="cls-3" d="M45.21,31h.87V37.8h-.87Z"/><path class="cls-3" d="M47.85,31h3.94v.73H48.72v2.15h2.59v.73H48.72v2.49H51.9v.74h-4Z"/><path class="cls-3" d="M53.24,31h.89l2.48,4.3.74,1.41h0c0-.69-.11-1.46-.11-2.17V31h.83V37.8h-.9l-2.48-4.31L54,32.08h0c0,.69.11,1.42.11,2.14V37.8h-.82Z"/><path class="cls-3" d="M61.3,31.69H59.23V31h5v.73H62.17V37.8H61.3Z"/><path class="cls-3" d="M64.45,36.91l.52-.6a2.7,2.7,0,0,0,1.89.85c.9,0,1.43-.45,1.43-1.12s-.5-.92-1.14-1.2l-1-.43a1.83,1.83,0,0,1,.76-3.58,2.81,2.81,0,0,1,2,.85l-.46.56a2.17,2.17,0,0,0-1.56-.64c-.76,0-1.27.38-1.27,1s.6.9,1.13,1.13l1,.42A1.9,1.9,0,0,1,69.18,36a2.07,2.07,0,0,1-2.34,1.94A3.29,3.29,0,0,1,64.45,36.91Z"/><path class="cls-3" d="M71.89,36.91l.52-.6a2.7,2.7,0,0,0,1.89.85c.9,0,1.43-.45,1.43-1.12s-.49-.92-1.14-1.2l-1-.43a1.83,1.83,0,0,1,.77-3.58,2.8,2.8,0,0,1,2,.85l-.46.56a2.17,2.17,0,0,0-1.55-.64c-.77,0-1.28.38-1.28,1s.6.9,1.13,1.13l1,.42A1.9,1.9,0,0,1,76.62,36a2.07,2.07,0,0,1-2.33,1.94A3.31,3.31,0,0,1,71.89,36.91Z"/><path class="cls-3" d="M79.26,31h1l2.31,6.84h-.92L80.44,34c-.25-.77-.47-1.52-.69-2.31h0c-.21.79-.43,1.54-.68,2.31l-1.2,3.82h-.89ZM78.16,35h3.15v.69H78.16Z"/><path class="cls-3" d="M84.38,35.15,82.32,31h.93l.88,1.93c.22.5.43,1,.67,1.49h0c.23-.51.47-1,.68-1.49L86.4,31h.9l-2,4.19V37.8h-.87Z"/><path class="cls-3" d="M54.2,64.61c0-2.19,1.2-3.52,2.92-3.52S60,62.43,60,64.61s-1.2,3.57-2.92,3.57S54.2,66.8,54.2,64.61Zm4.95,0c0-1.7-.81-2.75-2-2.75s-2,1-2,2.75.8,2.81,2,2.81S59.15,66.32,59.15,64.61Z"/><path class="cls-3" d="M61.41,61.22h.9l2.47,4.3.74,1.41h0c0-.68-.11-1.46-.11-2.17V61.22h.83v6.84h-.9l-2.47-4.31-.74-1.41h0c0,.69.11,1.42.11,2.14v3.58h-.83Z"/><path class="cls-3" d="M20.66,45.63h1.41l1.12,5.83.63,3.45h.07c.23-1.15.49-2.31.75-3.45l1.49-5.83h1.23l1.49,5.83c.26,1.13.52,2.3.77,3.45h.07c.21-1.15.4-2.31.61-3.45l1.12-5.83h1.32L30.52,56.34H28.88L27.26,49.9c-.19-.84-.36-1.62-.52-2.44h-.06c-.17.82-.36,1.6-.54,2.44l-1.59,6.44H22.94Z"/><path class="cls-3" d="M34.43,45.63H40.6v1.15H35.79v3.36h4.06v1.15H35.79v3.9h5v1.15H34.43Z"/><path class="cls-3" d="M46,45.63h2.68c3.3,0,5.06,1.91,5.06,5.31s-1.76,5.4-5,5.4H46Zm2.58,9.59c2.51,0,3.76-1.57,3.76-4.28s-1.25-4.2-3.76-4.2H47.34v8.48Z"/><path class="cls-3" d="M55.85,45.63H62v1.15H57.21v3.36h4.06v1.15H57.21v3.9h5v1.15H55.85Z"/><path class="cls-3" d="M64.29,45.63h1.37v9.56h4.67v1.15h-6Z"/><path class="cls-3" d="M72.07,45.63h1.36V56.34H72.07Z"/><path class="cls-3" d="M74.73,45.63h1.45l1.73,5.79c.37,1.26.63,2.28,1,3.54H79c.4-1.26.66-2.28,1-3.54l1.71-5.79h1.39l-3.4,10.71H78.16Z"/><path class="cls-3" d="M84.38,45.63h6.17v1.15H85.74v3.36H89.8v1.15H85.74v3.9h5v1.15H84.38Z"/><path class="cls-3" d="M92.82,45.63h3.35c2.19,0,3.75.78,3.75,3s-1.56,3.17-3.75,3.17h-2v4.53H92.82ZM96,50.71c1.67,0,2.58-.68,2.58-2.07s-.91-1.91-2.58-1.91h-1.8v4Zm-.07.73L97,50.73l3.27,5.61H98.7Z"/></svg>