<svg id="Layer_1" data-name="Layer 1" xmlns="http://www.w3.org/2000/svg" xmlns:xlink="http://www.w3.org/1999/xlink" viewBox="0 0 120 120"><defs><style>.cls-1{fill:#fff;}.cls-2{fill:url(#linear-gradient);}.cls-3{fill:#9cb84a;}.cls-4{fill:#2b7b9c;}.cls-5{fill:#ca2627;}.cls-6{fill:#b72025;}.cls-7{fill:#db3330;}</style><linearGradient id="linear-gradient" x1="4587.97" y1="-4168.3" x2="4762.09" y2="-4168.3" gradientTransform="matrix(0.25, 0, 0, -0.25, -1136.68, -983.81)" gradientUnits="userSpaceOnUse"><stop offset="0" stop-color="#3ba7de"/><stop offset="0.52" stop-color="#3ba7de"/><stop offset="1" stop-color="#3ba7de"/></linearGradient></defs><path class="cls-1" d="M111.71,69.22a13.59,13.59,0,0,0,4.69-5.56,9.1,9.1,0,0,0-9.46,3.69,47.87,47.87,0,0,0,1.36-5.8c6.93-.38,8.78-8.23,8.78-8.23a8.73,8.73,0,0,0-8.37,5.36c.13-1.15.18-2.3.28-3.46V51.91c6.66-1.93,6.77-10,6.73-10a8.68,8.68,0,0,0-6.93,6.78q-.26-2.66-.76-5.28c0-.17-.09-.34-.12-.51,5.75-3.11,4.12-10.48,4.09-10.43a8,8,0,0,0-4.88,7.31c-.3-1-.62-2.08-1-3.1-.17-.47-.37-.93-.55-1.4,5.28-3.86,2.66-11,2.66-10.91a8,8,0,0,0-3.81,8.27,50,50,0,0,0-2.54-4.73c4.54-4.93.46-11.43.46-11.43a8.19,8.19,0,0,0-1.85,9.29c-.63-.91-1.28-1.81-2-2.68-.75-6.46-8.08-7.77-8.08-7.72.21,5.93,5.26,7.66,7.3,8.12.55.68,1.07,1.37,1.58,2.08-3.78-2.56-8.72-.94-8.72-.94,3.13,5.45,8.82,4.2,10.56,3.66A46.63,46.63,0,0,1,103.72,33c-3.11-3.69-8.68-3.1-8.68-3.06,2,6.21,8.35,5.89,9.83,5.73.24.6.48,1.2.7,1.81.36,1.08.69,2.16,1,3.26-2.46-4.37-8.3-4.55-8.35-4.59a9.18,9.18,0,0,0,.46,1.65A43.56,43.56,0,0,0,60.21,14.66h-.05a43.63,43.63,0,0,0-40.7,27.92c-1,.3-5.17,1.8-7,5.52v0c.11-.63.16-1.26.27-1.89a16.43,16.43,0,0,1,.31-1.84c.07-.38.15-.78.23-1.18,2-.13,7.49-1,8.56-7,0,0-5,.19-7.7,3.61l.18-.61a13.42,13.42,0,0,1,.52-1.63c.2-.53.36-1.05.58-1.58l.1-.24c1.94.15,7.57,0,9.47-5.76,0,0-4.76-.54-7.94,2.32.63-1.31,1.31-2.6,2.05-3.85,2,.56,7.32,1.47,10.32-3.73,0,0-4.64-1.51-8.38.73.45-.65.92-1.3,1.4-1.93,2.16-.53,6.89-2.33,7.09-8.06.1-.05-7.3,1.26-8.08,7.73-.58.74-1.15,1.49-1.69,2.27l-.2.33A8.18,8.18,0,0,0,17.7,16.5c.06,0-4.09,6.52.49,11.45a50.46,50.46,0,0,0-2.63,5.12,8.11,8.11,0,0,0-3.75-8.68c0-.05-2.63,7.17,2.78,11v0a46.6,46.6,0,0,0-1.64,5,8.09,8.09,0,0,0-4.89-7.92C8,32.44,6.41,40,12.32,43a48.31,48.31,0,0,0-.91,6.35,8.82,8.82,0,0,0-7.07-7.43s0,8.32,7.05,10.08v1.81a16.63,16.63,0,0,0,.1,2.12,4.08,4.08,0,0,1,.11,1.14,6.1,6.1,0,0,0,.11,1.13c.07.61.15,1.21.25,1.81-.85-2.42-3.17-6.81-8.94-6.7,0,0,1.88,8.18,9.21,8.26A42.58,42.58,0,0,0,13.6,67c.07.26.17.52.26.78v.55c-1.52-2.39-4.69-5.77-10.15-4.67a13.06,13.06,0,0,0,4.65,5.56H3.5l7.89,11.15L3.5,91.47H18.21c-.17.13-.35.27-.52.42,0,0,7.37,5.47,13.61.62a47.34,47.34,0,0,0,4.57,3.07,9.52,9.52,0,0,0-9.55,3.94s8,3.67,13.09-2a45.29,45.29,0,0,0,4.79,2A9.47,9.47,0,0,0,35.86,105c-.06,0,8.45,2.12,12.52-4.28a47.67,47.67,0,0,0,11.29,1.52,49.39,49.39,0,0,0,10.77-1.14c.45-.09.88-.21,1.32-.32,4,6.33,12.5,4.22,12.5,4.22a9.46,9.46,0,0,0-8.06-5.53,48,48,0,0,0,4.48-1.78l.13-.06c5.1,5.44,13,1.9,12.93,1.85a9.41,9.41,0,0,0-8.85-4,48.24,48.24,0,0,0,4.16-2.75c6.18,4.45,13.31-.86,13.31-.86-.17-.15-.35-.29-.52-.42h15l-7.95-11.1,7.95-11.15ZM108.2,52c0,.51,0,1,0,1.56s0,1.37-.06,2c-.07.92-.15,1.84-.25,2.77-.43-3.62-3.14-6.06-4.74-7.19-.12-.73-.25-1.44-.41-2.15A12,12,0,0,0,108.2,52Zm-3.47,10a11.86,11.86,0,0,0-1-1.6c0-.63.05-1.26.05-1.89a12.52,12.52,0,0,0,3.74,2.92c-.28,1.52-.63,3-1,4.51V61.33S105.85,61.6,104.73,62.05ZM28.63,88.76a5.83,5.83,0,0,0,.32.6l-.8-.72Zm3.31,2.76c.54.45,1.08.89,1.64,1.32-.57-.38-1.14-.78-1.69-1.18A.58.58,0,0,1,31.94,91.52Zm56.22.17.08.18q-1,.69-1.95,1.32C86.93,92.71,87.55,92.21,88.16,91.69Zm3.22-2.85.94-.24c-.55.49-1.1,1-1.67,1.44A8.37,8.37,0,0,0,91.38,88.84Zm15.75-45.67c.07.3.16.6.22.91.31,1.73.54,3.47.69,5.21-1.29-4.28-5.64-6.12-7.15-6.62-.41-1.08-.86-2.15-1.36-3.18C101.81,42.78,106,43.13,107.13,43.17ZM17.61,48.69c-.17.78-.33,1.57-.46,2.36a11.64,11.64,0,0,0-4.69,5.83c0-.2,0-.4,0-.61a15.26,15.26,0,0,1-.1-2.11V51.91A11.42,11.42,0,0,0,17.61,48.69ZM13.76,64.9l-.48-2.21c-.07-.45-.16-.94-.24-1.43a12.17,12.17,0,0,0,3.5-2.93c0,.61,0,1.22.05,1.83A13.88,13.88,0,0,0,15.38,62c-1-.4-1.52-.64-1.52-.64v3.93ZM26.39,89.67V88.3c.78.76,1.59,1.5,2.42,2.21A12.7,12.7,0,0,0,26.39,89.67Zm67.54-1v1A11.39,11.39,0,0,0,92.4,90Q93.18,89.34,93.93,88.62Z"/><path class="cls-1" d="M81,106.89a12.11,12.11,0,0,1-9.86-4.36l-.37.08a53.79,53.79,0,0,1-11.1,1.17A49.26,49.26,0,0,1,49,102.46c-4.88,6.3-13.63,4-13.71,4l-1.51-.6.71-1.45a12,12,0,0,1,2.12-3.09,14.25,14.25,0,0,1-11.28-.64l-1.11-.94.91-1.14a11.57,11.57,0,0,1,2.92-2.86C22.87,97,18,93.92,16.88,93.15L17,93H.59l9-12.6L.6,67.72H4.51c-1.55-1.8-2.67-3.83-2.1-4.81l.33-.59.67-.13a10.85,10.85,0,0,1,4.69,0c-5-2.26-6.58-8.12-6.58-8.88V51.83H3a10,10,0,0,1,6.87,2.37V53.12c-6.92-2.54-7-10.81-7-11.18V40.08l1.82.38a10.45,10.45,0,0,1,4.57,2.13C6.19,39.51,6,35,6.54,32.35A1.51,1.51,0,0,1,7.92,31l.39,0,.35.16a10.22,10.22,0,0,1,1.57.86,13.48,13.48,0,0,1,.21-8.2l.48-1.12,1.46.3.23.15A10.37,10.37,0,0,1,14.84,25,12.45,12.45,0,0,1,16,16.56l1.55-2.32,1.21,1.19a10,10,0,0,1,2.48,3.8,12.34,12.34,0,0,1,8.18-5.33l1.21-.11.44,1.41v.25a9.19,9.19,0,0,1-3.6,7.28,8.23,8.23,0,0,1,2.94.76L31,24A45,45,0,0,1,89,23.59l1.12-.37a13.63,13.63,0,0,1,2.44-.49A9.17,9.17,0,0,1,89,15.45l0-1.47,1.47-.08a12,12,0,0,1,8.44,5.34,9.77,9.77,0,0,1,2.48-3.81l1.33-1.31,1,1.58A12.53,12.53,0,0,1,105.18,25a10.81,10.81,0,0,1,2.27-1.89l.23-.14,1.44-.31.5,1.11A12.81,12.81,0,0,1,109.8,32a11.42,11.42,0,0,1,1.58-.87l.44-.2.47.09c1.06.21,1.21,1.19,1.3,1.78.48,3.19-.09,7.13-2.78,9.82a10.49,10.49,0,0,1,4.6-2.16l.66-.13.54.4c.6.44.83.91.4,3.3-.78,4.33-3.13,7.52-6.52,8.94v1a10.1,10.1,0,0,1,6.62-2.16l1.86,0-.43,1.81c-.07.3-1.58,6.39-6.76,8.6a11,11,0,0,1,4.92-.08l1.2.24v1.23a10,10,0,0,1-2.32,4.06h4.15l-9,12.65,9,12.6H103.42l-.17.12c-.26.2-5.52,4-11.26,2.65a11.91,11.91,0,0,1,3,2.89l.08.13.68,1.15-1.07.81a14.53,14.53,0,0,1-11.15.59,12.22,12.22,0,0,1,2.12,3.07l.81,1.67-1.8.45A16,16,0,0,1,81,106.89Zm-7.4-6.1c2.33,2.86,5.89,3.21,8.16,3.08A7.9,7.9,0,0,0,76.07,101Zm-35.23,3.08c2.24.12,5.76-.22,8.1-3L44.3,101A8,8,0,0,0,38.36,103.87ZM47.7,99l1,.27a46.45,46.45,0,0,0,10.94,1.47,49.77,49.77,0,0,0,10.44-1.1l.81-.2,1.51-.37.06.09,3.2-1.1c1.57-.55,3-1.11,4.34-1.73l1-.49.1.09,3-1.76c.65-.39,1.31-.79,2-1.22l-.69-1c.62-.47,1.22-.95,1.81-1.45l1.57-1.32.23.54.44-.6a8.62,8.62,0,0,0,.61-1l.31-.61,3.43-.88,1.64-1.59v1.17l2.49-.64-2.49,2.22v3l-1.19.25a10.15,10.15,0,0,0-1.35.38l-2,.69c3.3,1.73,6.78.59,8.8-.42L97.45,90H113.9L107,80.37l6.88-9.65h-5.82l-.11,1-.11-1h-1.19L105,76.83V72.41l-1.79,2.33,1.79-6V63.58l-.9.36-.64-1.18a12.4,12.4,0,0,0-.9-1.42l-.32-.43,0-.53c0-.61,0-1.22,0-1.83l0-4,2.61,3.07a10.53,10.53,0,0,0,1.6,1.51l0-.5c-.36-3.05-2.74-5.16-4.12-6.14l-.51-.37-.1-.61c-.12-.7-.25-1.39-.39-2.08l-1.07-5,3.6,3.62a9.45,9.45,0,0,0,2.8,1.9l-.06-.19c-1.14-3.8-5.35-5.36-6.18-5.64l-.68-.22-.25-.67c-.42-1.1-.85-2.11-1.31-3.07l2.59-1.49a7.24,7.24,0,0,0,4.46,2.78c-1.45-2.54-4.44-3.4-6.24-3.69l-1.65.75a42.13,42.13,0,0,0-76.48,4.64l-.26.68-.38.12L19.07,49c-.17.75-.31,1.51-.44,2.28l-.11.64L18,52.3a10.08,10.08,0,0,0-4.09,5l-.55,1.79s0,.11,0,.17a10.23,10.23,0,0,0,2-1.89L18,54.07v4.26c0,.59,0,1.18.05,1.76l0,.55-.34.44A12.24,12.24,0,0,0,16.7,62.7l-.64,1.16-.7-.28v12.6L14,71.36l-1.42-2.23A8.2,8.2,0,0,0,6.14,65a11.2,11.2,0,0,0,3,3l4.33,2.77H6.4l6.83,9.65L6.41,90H22.6l-2.25,1.74c2,1,5.41,2.07,8.59.52l-.77-.36A10.82,10.82,0,0,0,26,91.12l-1.15-.27V87.74L22.5,85.6l2.39.63V84.72L27,86.79l2.67.69.31.62c.08.16.17.33.27.49L31,89.84l.31-.84,1.62,1.37c.52.44,1.05.87,1.58,1.28l-.62.87q1.37.95,2.76,1.77L39,95.7l0,0,1,.49a48.12,48.12,0,0,0,4.64,1.94l2.95,1ZM29,98.83c2.14.51,5.68.83,8.48-1.51l-1.79-.25A8,8,0,0,0,29,98.83Zm54.45-.93a10,10,0,0,0,7.68.93A7.84,7.84,0,0,0,85,97l-.57,0Zm-.91-.69a7,7,0,0,0,.7.55l.47-.65Zm24.43-27.38-.24.82,1.09-.69-.13-1.07Zm1.47-1.9-.2,1.76L110.9,68a11.22,11.22,0,0,0,3-3A7.51,7.51,0,0,0,108.4,67.93ZM9.93,62.81c.4.19.78.39,1.15.61,0-.14-.07-.28-.1-.42C10.62,63,10.27,62.89,9.93,62.81Zm99.65.11c0,.08,0,.15,0,.23a9.37,9.37,0,0,1,.85-.4ZM5.24,55.06a8.53,8.53,0,0,0,5,4.73,10.33,10.33,0,0,0-.92-1.73l-.05.1,0-.14A7,7,0,0,0,5.24,55.06Zm105.11,3.72.07.79a8.87,8.87,0,0,0,4.41-4.5A7.11,7.11,0,0,0,110.35,58.78ZM19.68,44.08c-.95.32-4.37,1.64-5.84,4.68L13.25,50a9.28,9.28,0,0,0,3.24-2.28Zm-13.56,0A8.44,8.44,0,0,0,10,49.86l-.05-.21A7.37,7.37,0,0,0,6.12,44.12ZM110.3,48.87l.19.72a8.81,8.81,0,0,0,3.44-5.46A7.14,7.14,0,0,0,110.3,48.87ZM10,43.26a8.72,8.72,0,0,1,.64.71l0-.21C10.4,43.6,10.17,43.43,10,43.26Zm99.64.38a.77.77,0,0,1,0,.15c.18-.21.36-.4.55-.59Zm-90-5.6a8.2,8.2,0,0,0-4.3,2.62l-.62.78A7.09,7.09,0,0,0,19.64,38Zm-10.32-3a7.76,7.76,0,0,0,2.12,5.49V40.4A6.75,6.75,0,0,0,9.32,35.07Zm99.3,4.8.22.47a7.8,7.8,0,0,0,1.89-5.28A6.63,6.63,0,0,0,108.62,39.87Zm-86-8.42a8.23,8.23,0,0,0-4.52,1.9l-.93.83A7.09,7.09,0,0,0,22.59,31.45Zm74.88,0a7,7,0,0,0,5.3,2.73l-.2-.24A7.87,7.87,0,0,0,97.47,31.45Zm9.87-4.35a6.66,6.66,0,0,0-1.41,5.37l0,.4A7.73,7.73,0,0,0,107.34,27.1Zm-94.61,0a7.8,7.8,0,0,0,1.35,5.75v0A6.77,6.77,0,0,0,12.73,27.11Zm8.16.12a6.88,6.88,0,0,0,5.85-1.55,8.46,8.46,0,0,0-4.91,1Zm72.44-1.55a6.89,6.89,0,0,0,5.78,1.56l-.6-.41A8.12,8.12,0,0,0,93.33,25.68Zm8.7-6.3a6.83,6.83,0,0,0-.12,5.88h0A7.91,7.91,0,0,0,102,19.38Zm-84,.05a7.9,7.9,0,0,0,.09,5.83l0-.07A6.82,6.82,0,0,0,18.06,19.43Zm74.3-1.89a6.88,6.88,0,0,0,4.29,4.07A7.7,7.7,0,0,0,92.36,17.54Zm-64.72,0a7.77,7.77,0,0,0-4.25,4A6.91,6.91,0,0,0,27.64,17.56Z"/><g id="g3"><path id="path12" class="cls-2" d="M103.77,58.26A43.62,43.62,0,1,1,60.16,14.65h.05A43.59,43.59,0,0,1,103.77,58.26Z"/></g><path class="cls-3" d="M59.59,88.46A29.72,29.72,0,1,1,89.25,58.74,29.67,29.67,0,0,1,59.59,88.46Z"/><path class="cls-1" d="M59.63,30.28A28.43,28.43,0,1,1,31.21,58.71h0A28.52,28.52,0,0,1,59.63,30.28h0m0-2.42A30.88,30.88,0,1,0,90.51,58.74,30.89,30.89,0,0,0,59.63,27.86h0Z"/><path class="cls-1" d="M59.59,78.31A17.18,17.18,0,0,1,42.43,61.18c0-8,5.37-13.42,10.1-18.2,3.16-3.15,6.16-6.15,7.06-9.51.88,3.41,3.89,6.36,7,9.51,4.73,4.75,10.09,10.11,10.09,18.2A17.14,17.14,0,0,1,59.59,78.32h0"/><path class="cls-3" d="M62.47,46.65c-1.13-1.14-2.27-2.28-3.26-3.48-.94,1.13-2,2.1-3,3.1a2.44,2.44,0,0,0-.58.84,2.77,2.77,0,0,0-.2,1.58v.16a1.79,1.79,0,0,0,.42.79.17.17,0,0,0,.1.15c.68.85,2.27,2.37,3.16,3.22l5.31,5.47L66,60.11a33.57,33.57,0,0,1,3.52,4.36h0a1.17,1.17,0,0,0,.53.48h.11a.63.63,0,0,0,.52-.48h0a11,11,0,0,0,.53-3.41,13.07,13.07,0,0,0-2.43-7.41,45.71,45.71,0,0,0-6.2-7Z"/><path class="cls-3" d="M64,64.31c-1.32-1.57-2.58-3-4.55-5.15-1.68,1.89-3.2,3.41-4.54,4.89a6,6,0,1,0,9.37.64A2.07,2.07,0,0,0,64,64.31Z"/><path class="cls-3" d="M56.21,56.54a.41.41,0,0,0,0-.58h0l-3.89-4-.84-.78a27.56,27.56,0,0,0-1.9,2.41,14.22,14.22,0,0,0-2,4.42h0a9.82,9.82,0,0,0,.15,5.53l.11.16a4,4,0,0,0,.32.52h0s.46.74.84.74h.16a.48.48,0,0,0,.3-.26,10.85,10.85,0,0,1,1.38-2.16l1.42-1.74h0Z"/><g id="g24"><path id="path26" class="cls-1" d="M25.81,36.75a4.17,4.17,0,0,1,.84-.89,2.87,2.87,0,0,1,1.05-.48,2.48,2.48,0,0,1,1.21,0,5.19,5.19,0,0,1,2.28,1.52A3,3,0,0,1,31.77,38a2.2,2.2,0,0,1,0,1.14,3.5,3.5,0,0,1-.53,1.2l-1.58,2.28L24.3,38.94Zm4.31,3a1.78,1.78,0,0,0,.26-.58,2.15,2.15,0,0,0,0-.62,1.83,1.83,0,0,0-.32-.64,3.59,3.59,0,0,0-1.47-1.05,2,2,0,0,0-.74-.16,1.44,1.44,0,0,0-.68.27,2.41,2.41,0,0,0-.63.68l-.58.84,3.41,2.27Z"/><path id="path28" class="cls-1" d="M30.64,33.43l.69.58h0a1.26,1.26,0,0,1-.16-.46.79.79,0,0,1,0-.48l.16-.48a1.26,1.26,0,0,1,.27-.42l.2-.2.9.84-.16.16a.58.58,0,0,0-.21.2,1.81,1.81,0,0,0-.31.54,1,1,0,0,0,.16,1,3,3,0,0,0,.42.46l1.58,1.42-.9.95-3.53-3.15A6.75,6.75,0,0,0,30.64,33.43Z"/><path id="path30" class="cls-1" d="M38,32.91l-.42-.52h0a1.41,1.41,0,0,1-.12.9A3.39,3.39,0,0,1,37,34a2.77,2.77,0,0,1-.74.48,1.13,1.13,0,0,1-.68,0,1.9,1.9,0,0,1-.64-.31,3.54,3.54,0,0,1-.58-.58l-1.84-2.22,1-.84,1.74,2A1.35,1.35,0,0,0,36,33a.72.72,0,0,0,.68-.2c.26-.26.42-.48.36-.74a2,2,0,0,0-.52-.94l-1.67-1.8,1-.84L39,32.08Z"/><path id="path32" class="cls-1" d="M38,27.07l.32.52h.05a1.87,1.87,0,0,1,.21-.8,1.94,1.94,0,0,1,.58-.56,2.42,2.42,0,0,1,.94-.38,2,2,0,0,1,.9.1,3.89,3.89,0,0,1,.78.48,2.82,2.82,0,0,1,.64.74,2.61,2.61,0,0,1,.36.84,2.31,2.31,0,0,1,.12.9,2,2,0,0,1-.26.78,2.2,2.2,0,0,1-.7.69,2.65,2.65,0,0,1-.78.31,1.34,1.34,0,0,1-.79-.1h0l1.21,1.89-1.14.58L37,27.69Zm3.41,2.27a.79.79,0,0,0,.1-.48,1.84,1.84,0,0,0-.1-.52,5.2,5.2,0,0,0-.26-.53,3.32,3.32,0,0,0-.37-.47,1.21,1.21,0,0,0-.42-.32.79.79,0,0,0-.48-.1.91.91,0,0,0-.52.16.67.67,0,0,0-.37.42.76.76,0,0,0-.11.47,2.38,2.38,0,0,0,.11.53,3.6,3.6,0,0,0,.26.52,2.84,2.84,0,0,0,.37.47,1.1,1.1,0,0,0,.42.32.87.87,0,0,0,.47.1.74.74,0,0,0,.53-.21.78.78,0,0,0,.38-.36Z"/><path id="path34" class="cls-1" d="M42.59,25.12a3,3,0,0,1,.26-.68,2.33,2.33,0,0,1,.52-.52,4.89,4.89,0,0,1,.69-.42,3.44,3.44,0,0,1,.69-.28,1.76,1.76,0,0,1,.68-.1,1.55,1.55,0,0,1,.63.16,1,1,0,0,1,.47.58l1,2.27c.1.21.2.37.31.58a1.12,1.12,0,0,0,.31.37l-1.2.53a.65.65,0,0,1-.16-.21c-.06-.06-.11-.16-.16-.22a1.71,1.71,0,0,1-.47.74,2.15,2.15,0,0,1-.74.48,2.88,2.88,0,0,1-.63.2.73.73,0,0,1-.58,0c-.16-.1-.37-.16-.53-.26a1.91,1.91,0,0,1-.36-.53,1.66,1.66,0,0,1-.16-.69,1.37,1.37,0,0,1,.16-.52,1.32,1.32,0,0,1,.36-.42,2.74,2.74,0,0,1,.48-.36c.16-.12.36-.22.52-.32a2.59,2.59,0,0,0,.42-.32,1.18,1.18,0,0,0,.27-.32.27.27,0,0,0,0-.32.78.78,0,0,0-.22-.26c-.1,0-.16-.1-.26-.1a.59.59,0,0,0-.32.06.42.42,0,0,0-.32.1.75.75,0,0,0-.47.42.66.66,0,0,0,0,.64l-1.21.52v-.8Zm3,.64a1.83,1.83,0,0,0-.21.15,1.33,1.33,0,0,1-.26.16.92.92,0,0,0-.27.16.89.89,0,0,0-.26.21l-.21.21a.46.46,0,0,0-.1.26v.32a.33.33,0,0,0,.22.26c.11,0,.15.11.26.11a.39.39,0,0,0,.26,0,1.7,1.7,0,0,1,.32-.1,1,1,0,0,0,.52-.38.7.7,0,0,0,.16-.42.74.74,0,0,0-.06-.36,1.17,1.17,0,0,1-.1-.26l-.21-.48a.44.44,0,0,1-.06.16Z"/><path id="path36" class="cls-1" d="M48,20.25l2,6.2-1.2.42-2-6.2Z"/><path id="path38" class="cls-1" d="M55.69,18.7l3.23,6.16-1.47.21-.68-1.37L54.35,24,54,25.54l-1.42.22,1.63-6.82Zm.58,4-1.14-2.28h0l-.52,2.47Z"/><path id="path40" class="cls-1" d="M60.21,23.8a1.13,1.13,0,0,0,.22.27.6.6,0,0,0,.31.15.77.77,0,0,0,.37,0,.55.55,0,0,0,.31,0c.11,0,.21,0,.27-.1a.39.39,0,0,0,.2-.2.51.51,0,0,0-.1-.72l-.16-.08a11.16,11.16,0,0,0-1.13-.32l-.58-.14a1,1,0,0,1-.48-.28.58.58,0,0,1-.31-.36A.61.61,0,0,1,59,21.5a1.36,1.36,0,0,1,.21-.74,2.67,2.67,0,0,1,.47-.48,1.43,1.43,0,0,1,.69-.21,3.59,3.59,0,0,1,.73-.05,3.66,3.66,0,0,1,.74.1,1.82,1.82,0,0,1,.64.27,1.87,1.87,0,0,1,.46.47,1.24,1.24,0,0,1,.22.74l-1.26-.06a.59.59,0,0,0-.26-.52,1.13,1.13,0,0,0-.64-.16h-.26c-.1,0-.16.06-.26.06a.5.5,0,0,0-.22.16.4.4,0,0,0-.1.26.52.52,0,0,0,.16.32,1,1,0,0,0,.32.2l.46.16.54.16.58.16a1,1,0,0,1,.46.26A.84.84,0,0,1,63,23a.74.74,0,0,1,.1.58,1.65,1.65,0,0,1-.2.78,2.31,2.31,0,0,1-.54.54,2.08,2.08,0,0,1-.68.26,5.08,5.08,0,0,1-.78,0,4.27,4.27,0,0,1-.8-.1,1.34,1.34,0,0,1-.68-.32,2.84,2.84,0,0,1-.52-.52,1.23,1.23,0,0,1-.22-.79H60c.15.06.15.16.21.26Z"/><path id="path42" class="cls-1" d="M65.06,24.12a.83.83,0,0,0,.2.32,1,1,0,0,0,.32.21.89.89,0,0,0,.36.11.86.86,0,0,0,.32,0h.32c.1,0,.16-.11.26-.16a1,1,0,0,0,.16-.26.64.64,0,0,0-.32-.54,5.07,5.07,0,0,0-1-.46c-.22-.12-.38-.16-.54-.26l-.47-.32a1.27,1.27,0,0,1-.31-.42,1,1,0,0,1-.06-.53,1.51,1.51,0,0,1,.32-.73.9.9,0,0,1,.52-.38,1.66,1.66,0,0,1,.69-.16,3,3,0,0,1,.73,0,2.64,2.64,0,0,1,.74.22,2.7,2.7,0,0,1,.64.36,2.66,2.66,0,0,1,.42.52,1.18,1.18,0,0,1,.1.74l-1.22-.2a.54.54,0,0,0-.2-.58,1.62,1.62,0,0,0-.58-.27h-.26a.39.39,0,0,0-.26,0c-.11.05-.16.05-.22.11a.42.42,0,0,0-.1.2c-.06.12,0,.22.1.32s.22.16.32.26a1.4,1.4,0,0,0,.48.22c.16,0,.36.16.52.2a5.12,5.12,0,0,1,.52.27,3.25,3.25,0,0,1,.42.31.85.85,0,0,1,.26.42,1,1,0,0,1,.06.58,1.34,1.34,0,0,1-.32.74,1.36,1.36,0,0,1-.58.42,1.49,1.49,0,0,1-.72.16,4.25,4.25,0,0,1-.8-.05,5,5,0,0,1-.78-.21,2,2,0,0,1-.64-.37,1.49,1.49,0,0,1-.42-.58,1.36,1.36,0,0,1-.1-.84l1.2.21a.32.32,0,0,0,0,.37Z"/><path id="path44" class="cls-1" d="M69.42,22.66a2.4,2.4,0,0,1,.74-.64,1.65,1.65,0,0,1,.89-.26,2.15,2.15,0,0,1,1,.16,2.21,2.21,0,0,1,.9.46,2,2,0,0,1,.58.74,2.59,2.59,0,0,1,.26.9,3.4,3.4,0,0,1-.64,2,2.11,2.11,0,0,1-.73.63,2.53,2.53,0,0,1-.9.26,2.15,2.15,0,0,1-1-.16,2,2,0,0,1-.89-.47,1.57,1.57,0,0,1-.58-.74,2.78,2.78,0,0,1-.27-.89,2.85,2.85,0,0,1,.16-1A7.55,7.55,0,0,1,69.42,22.66Zm.68,1.88a.8.8,0,0,0,0,.53,1,1,0,0,0,.27.42,1.16,1.16,0,0,0,.46.32,1.14,1.14,0,0,0,.58,0,2.09,2.09,0,0,0,.48-.22.84.84,0,0,0,.32-.42c0-.16.16-.37.2-.52a2,2,0,0,0,.1-.58,1.57,1.57,0,0,0,0-.53,1.09,1.09,0,0,0-.26-.42,1.75,1.75,0,0,0-.48-.32,1,1,0,0,0-.57-.05,1.82,1.82,0,0,0-.47.21.78.78,0,0,0-.32.42c-.06.16-.16.37-.22.53a3.7,3.7,0,0,0-.1.58Z"/><path id="path46" class="cls-1" d="M77.21,25.07a.77.77,0,0,0-.53-.11,1.84,1.84,0,0,0-.47.22,2.42,2.42,0,0,0-.42.36l-.32.48a2,2,0,0,0-.22.52,2.35,2.35,0,0,0,0,.53.78.78,0,0,0,.16.47.94.94,0,0,0,.42.37,1.14,1.14,0,0,0,.79.11,1.2,1.2,0,0,0,.58-.53l1.14.58a2.53,2.53,0,0,1-1.32,1,2.07,2.07,0,0,1-1.63-.26,3.48,3.48,0,0,1-.8-.58,3.47,3.47,0,0,1-.46-.79,1.72,1.72,0,0,1-.12-.9,3.5,3.5,0,0,1,.28-.94,3.18,3.18,0,0,1,.54-.81,2.38,2.38,0,0,1,.8-.53,2.73,2.73,0,0,1,.94-.16,3.45,3.45,0,0,1,1,.27,2.91,2.91,0,0,1,.69.47,1.78,1.78,0,0,1,.47.64,1.58,1.58,0,0,1,.21.73,1.66,1.66,0,0,1-.16.85l-1.14-.58a1,1,0,0,0-.42-1.38Z"/><path id="path48" class="cls-1" d="M81.66,26.6l-2.51,4L78,29.91l2.5-4Zm-.73-1.32.57-.9,1.13.69-.58.89Z"/><path id="path50" class="cls-1" d="M82.46,28a1.88,1.88,0,0,1,.74-.11,3.27,3.27,0,0,1,.74.21,2.5,2.5,0,0,1,.68.42,3.43,3.43,0,0,1,.53.48,3.07,3.07,0,0,1,.42.58,1.33,1.33,0,0,1,.16.62,1.13,1.13,0,0,1-.27.68l-1.53,2a2.3,2.3,0,0,0-.36.52.73.73,0,0,0-.16.42l-1.06-.84a2.14,2.14,0,0,1,.1-.22c0-.1.11-.15.11-.2a1.62,1.62,0,0,1-.84-.1c-.27-.13-.54-.27-.79-.42a4.25,4.25,0,0,1-.47-.48,1.3,1.3,0,0,1-.27-.52,1.14,1.14,0,0,1,0-.58,1.44,1.44,0,0,1,.32-.58,2,2,0,0,1,.52-.48,1.15,1.15,0,0,1,.58-.1,1.21,1.21,0,0,1,.58.16,3.71,3.71,0,0,1,.53.26,3.55,3.55,0,0,1,.53.32,2.59,2.59,0,0,0,.46.26,1.26,1.26,0,0,0,.38.1.45.45,0,0,0,.32-.16.43.43,0,0,0,.14-.32.21.21,0,0,0,0-.26l-.15-.26a.9.9,0,0,0-.27-.21,1.1,1.1,0,0,0-.58-.26.75.75,0,0,0-.52.26L82,28.33A.93.93,0,0,1,82.5,28Zm.9,3a.27.27,0,0,1-.26-.12.94.94,0,0,1-.26-.14,2.26,2.26,0,0,1-.26-.16.66.66,0,0,0-.27-.12.62.62,0,0,0-.27,0,1.13,1.13,0,0,1-.26,0,.92.92,0,0,0-.26.22c-.1.1-.1.2-.16.26a.21.21,0,0,0,0,.26,2.26,2.26,0,0,1,.16.26c0,.12.16.16.2.22a1.18,1.18,0,0,0,.58.26.51.51,0,0,0,.42,0,.83.83,0,0,0,.32-.2l.21-.22.32-.36A.32.32,0,0,0,83.3,31Z"/><path id="path52" class="cls-1" d="M88.94,32.65l-.63.62-.69-.68L86,34.28a.46.46,0,0,0-.22.62.47.47,0,0,0,.22.22l.16.16a.29.29,0,0,0,.16.1l-.74.74a1.3,1.3,0,0,1-.31-.26,1.39,1.39,0,0,0-.32-.27c-.16-.16-.26-.31-.37-.42a2.48,2.48,0,0,1-.27-.47.94.94,0,0,1,0-.47,2.2,2.2,0,0,1,.32-.53l1.95-2-.42-.56.63-.64.58.58,1-1,1,.9-1,1Z"/><path id="path54" class="cls-1" d="M90.41,34.28l-3.52,3.1-.85-1,3.53-3.11A12.47,12.47,0,0,0,90.41,34.28Zm-.32-1.47.8-.74.84,1-.8.74Z"/><path id="path56" class="cls-1" d="M90.2,36.07a1.91,1.91,0,0,1,1-.06,1.83,1.83,0,0,1,.84.37,3.71,3.71,0,0,1,.74.74,2.66,2.66,0,0,1,.42.94,3.09,3.09,0,0,1,0,1,2.4,2.4,0,0,1-.36.84,3.3,3.3,0,0,1-1.69,1.2,1.87,1.87,0,0,1-.94,0,1.64,1.64,0,0,1-.84-.37,3,3,0,0,1-.74-.73,2.37,2.37,0,0,1-.42-1,1.87,1.87,0,0,1,0-.94,2.32,2.32,0,0,1,.32-.76,3.61,3.61,0,0,1,.72-.74,2.33,2.33,0,0,1,1-.47ZM89.61,38a1.83,1.83,0,0,0-.31.42.8.8,0,0,0-.11.48,2.36,2.36,0,0,0,.21.52.83.83,0,0,0,.42.36.8.8,0,0,0,.48.12,1.09,1.09,0,0,0,.52-.16c.16-.1.32-.16.48-.26a3,3,0,0,0,.42-.38,1.94,1.94,0,0,0,.32-.42,2.52,2.52,0,0,0,.1-.46,1.07,1.07,0,0,0-.22-.54.87.87,0,0,0-.42-.36.76.76,0,0,0-.47-.11,1,1,0,0,0-.53.16c-.15.11-.36.15-.47.27A1.3,1.3,0,0,0,89.61,38Z"/><path id="path58" class="cls-1" d="M95.2,41.38l-.58.32h0a2.39,2.39,0,0,1,.84.32,2,2,0,0,1,.53.63,1.73,1.73,0,0,1,.26.85,1.87,1.87,0,0,1-.1.62,1.81,1.81,0,0,1-.43.52,2.56,2.56,0,0,1-.68.42L92.47,46.4l-.58-1.14,2.36-1.14a1.61,1.61,0,0,0,.68-.58.78.78,0,0,0-.05-.74,1,1,0,0,0-.63-.58,2,2,0,0,0-1,.26L91,43.62l-.58-1.14,4.21-2.1Z"/></g><g id="g60"><path id="path62" class="cls-4" d="M94.88,18.92l.48.47c.31.31.73.79,1.31,1.42a52.71,52.71,0,0,1,4.42,5.79,49.41,49.41,0,0,1,5,10.1A52.52,52.52,0,0,1,108,43.43a58.39,58.39,0,0,1,1,7.68v4.11c-.12,1.42-.16,2.84-.38,4.26a48.82,48.82,0,0,1-1.94,8.78A49.37,49.37,0,0,1,97.2,85.15,48.5,48.5,0,0,1,80.68,97.73a50.15,50.15,0,0,1-21,4.55,48.48,48.48,0,0,1-20.84-5.06,49.65,49.65,0,0,1-16.15-13A50.45,50.45,0,0,1,17.24,76c-.22-.37-.38-.74-.58-1.14a11.87,11.87,0,0,1-.54-1.14l-.46-1.14-.48-1.13c-.26-.73-.63-1.47-.84-2.21s-.53-1.48-.74-2.2a44.16,44.16,0,0,1-1.89-8.79,6.29,6.29,0,0,1-.11-1.14,4.12,4.12,0,0,0-.11-1.14,16.48,16.48,0,0,1-.1-2.11V49.61a47.7,47.7,0,0,1,3.19-14.18A47.06,47.06,0,0,1,24.33,19.7c.58-.64,1.05-1.06,1.36-1.38l.48-.46.68.68-.47.48c-.31.3-.73.78-1.31,1.36a41.69,41.69,0,0,0-4.48,5.69,50.58,50.58,0,0,0-5.15,9.83c-.22.54-.38,1.06-.58,1.58a13.57,13.57,0,0,0-.52,1.64q-.24.87-.48,1.68c-.16.55-.26,1.14-.42,1.73s-.26,1.22-.37,1.8a16.05,16.05,0,0,0-.31,1.84c-.11.62-.16,1.26-.27,1.89s-.11,1.31-.15,1.94v4.16a15.19,15.19,0,0,0,.1,2.1,3.61,3.61,0,0,0,.1,1.06c.1.32,0,.73.11,1,.11.74.16,1.42.27,2.16s.26,1.48.36,2.16l.48,2.2L14.07,66l.31,1.14c.22.74.48,1.48.74,2.21a9.15,9.15,0,0,0,.42,1.14A7.79,7.79,0,0,1,16,71.66l.48,1.14c.16.37.36.73.52,1.13s.38.74.53,1.06a7.93,7.93,0,0,0,.58,1.06,45.42,45.42,0,0,0,5.52,8,48,48,0,0,0,36.25,16.83,46.35,46.35,0,0,0,10.37-1A48,48,0,0,0,80,96.58a49.52,49.52,0,0,0,8.85-5.16,50.52,50.52,0,0,0,7.36-6.73A47.86,47.86,0,0,0,107.77,59.8c.21-1.42.32-2.79.42-4.15.06-.68.06-1.38.06-2.06s-.06-1.36-.06-2a55.67,55.67,0,0,0-.84-7.51,55.85,55.85,0,0,0-1.78-6.63,46.72,46.72,0,0,0-4.91-10,52.6,52.6,0,0,0-4.3-5.68c-.58-.63-1-1.14-1.32-1.42l-.48-.47Z"/></g><g id="g64"><path id="path66" class="cls-4" d="M71.26,100s-.63-9.53,8.1-11.37C79.38,88.62,79.38,98.15,71.26,100Z"/><path id="path68" class="cls-4" d="M71.26,100s9.1-2.94,13,5.05C84.26,105,75.05,107.36,71.26,100Z"/><g id="g70"><path id="path72" class="cls-4" d="M80.1,96.83S77.82,87.58,86,84.21C86.1,84.26,87.73,93.62,80.1,96.83Z"/><path id="path74" class="cls-4" d="M80.1,96.83s8.42-4.47,13.64,2.68C93.77,99.57,85.15,103.46,80.1,96.83Z"/></g><g id="g76"><path id="path78" class="cls-4" d="M88.41,92.25s-4.27-8.52,3.1-13.65C91.47,78.63,95.15,87.42,88.41,92.25Z"/><path id="path80" class="cls-4" d="M88.41,92.25s7.21-6.21,14-.37C102.36,91.88,94.73,97.57,88.41,92.25Z"/></g><g id="g82"><path id="path84" class="cls-4" d="M95.3,86.19s-5.57-7.73.85-14C96.15,72.2,101.2,80.25,95.3,86.19Z"/><path id="path86" class="cls-4" d="M95.3,86.19s6.1-7.31,13.64-2.64C108.94,83.52,102.46,90.42,95.3,86.19Z"/></g><g id="g88"><path id="path90" class="cls-4" d="M101.09,78.47s-6.58-6.15-1.79-13C99.3,65.47,105.46,72,101.09,78.47Z"/><path id="path92" class="cls-4" d="M101.09,78.47s4.32-7.89,12.15-5C113.3,73.58,108.45,81.09,101.09,78.47Z"/></g><g id="g94"><path id="path96" class="cls-4" d="M105.14,70.48s-7.47-5-3.78-12.58C101.3,57.9,108.41,63.45,105.14,70.48Z"/><path id="path98" class="cls-4" d="M105.14,70.48s3-8.47,11.26-6.83C116.4,63.73,112.82,71.94,105.14,70.48Z"/></g><g id="g100"><path id="path102" class="cls-4" d="M107.73,61.58s-7.85-3.41-5.69-11.1C102,50.48,109.56,54.35,107.73,61.58Z"/><path id="path104" class="cls-4" d="M107.73,61.58s1.41-8.42,9.35-8.26C117.08,53.32,115.14,61.63,107.73,61.58Z"/></g><g id="g106"><path id="path108" class="cls-4" d="M108.41,52.08s-8.37-1.58-8-9.57C100.4,42.48,108.61,44.64,108.41,52.08Z"/><path id="path110" class="cls-4" d="M108.41,52.08s-.54-8.52,7.31-10.15C115.76,41.9,115.66,50.48,108.41,52.08Z"/></g><g id="g112"><path id="path114" class="cls-4" d="M107.45,43.17s-8,.26-9.25-7.05C98.25,36.16,106.14,36.38,107.45,43.17Z"/><path id="path116" class="cls-4" d="M107.45,43.17s-2.2-7.63,4.55-10.68C112,32.43,113.77,40.22,107.45,43.17Z"/></g><g id="g118"><path id="path120" class="cls-4" d="M105.19,35.59S97.36,37,95,29.91C95,29.85,103,29,105.19,35.59Z"/><path id="path122" class="cls-4" d="M105.19,35.59s-3.25-7.26,3.06-11.21C108.25,24.34,111,31.81,105.19,35.59Z"/></g><g id="g124"><path id="path126" class="cls-4" d="M101.72,28.12s-7.37,3-11.09-3.47C90.63,24.65,98.14,22.18,101.72,28.12Z"/><path id="path128" class="cls-4" d="M101.72,28.12s-4.68-6.42.64-11.63C102.36,16.49,106.57,23.18,101.72,28.12Z"/></g><path id="path130" class="cls-4" d="M98.62,23.66s-7.89-.85-8.15-8.27C90.47,15.33,98.25,16.71,98.62,23.66Z"/><g id="g132"><path id="path134" class="cls-4" d="M48.85,100s.63-9.53-8.1-11.37C40.72,88.62,40.72,98.15,48.85,100Z"/><path id="path136" class="cls-4" d="M48.85,100s-9.09-2.94-13,5.05C35.8,105,45,107.36,48.85,100Z"/><g id="g138"><path id="path140" class="cls-4" d="M40,96.83S42.24,87.58,34,84.21C34,84.26,32.33,93.62,40,96.83Z"/><path id="path142" class="cls-4" d="M40,96.83s-8.42-4.47-13.64,2.68C26.27,99.57,34.9,103.46,40,96.83Z"/></g><g id="g144"><path id="path146" class="cls-4" d="M31.63,92.25s4.26-8.52-3.1-13.65C28.59,78.63,24.91,87.42,31.63,92.25Z"/><path id="path148" class="cls-4" d="M31.63,92.25S24.42,86,17.69,91.88C17.7,91.87,25.33,97.56,31.63,92.25Z"/></g><g id="g150"><path id="path152" class="cls-4" d="M24.81,86.19s5.58-7.73-.84-14C24,72.2,18.86,80.25,24.81,86.19Z"/><path id="path154" class="cls-4" d="M24.81,86.19s-6.11-7.31-13.65-2.64C11,83.52,17.6,90.42,24.81,86.19Z"/></g><g id="g156"><path id="path158" class="cls-4" d="M19,78.47s6.59-6.15,1.8-13C20.76,65.47,14.65,72,19,78.47Z"/><path id="path160" class="cls-4" d="M19,78.47s-4.31-7.89-12.2-5C6.76,73.58,11.6,81.09,19,78.47Z"/></g><g id="g162"><path id="path164" class="cls-4" d="M15,70.48s7.47-5,3.79-12.58C18.76,57.9,11.65,63.45,15,70.48Z"/><path id="path166" class="cls-4" d="M15,70.48S11.91,62,3.71,63.65C3.66,63.73,7.23,71.94,15,70.48Z"/></g><g id="g168"><path id="path170" class="cls-4" d="M12.39,61.58s7.84-3.41,5.69-11.1C18.08,50.48,10.49,54.35,12.39,61.58Z"/><path id="path172" class="cls-4" d="M12.39,61.58S11,53.16,3,53.32C3,53.32,4.92,61.63,12.39,61.58Z"/></g><g id="g174"><path id="path176" class="cls-4" d="M11.65,52.08s8.37-1.58,8-9.57C19.7,42.48,11.45,44.64,11.65,52.08Z"/><path id="path178" class="cls-4" d="M11.65,52.08s.53-8.52-7.31-10.15C4.34,41.9,4.34,50.48,11.65,52.08Z"/></g><g id="g180"><path id="path182" class="cls-4" d="M12.6,43.17s8,.26,9.26-7.05C21.81,36.16,13.92,36.38,12.6,43.17Z"/><path id="path184" class="cls-4" d="M12.6,43.17s2.21-7.63-4.55-10.68C8,32.43,6.34,40.22,12.6,43.17Z"/></g><g id="g186"><path id="path188" class="cls-4" d="M14.86,35.59S22.7,37,25,29.91C25,29.85,17.12,29,14.86,35.59Z"/><path id="path190" class="cls-4" d="M14.86,35.59s3.26-7.26-3-11.21C11.81,24.34,9.07,31.81,14.86,35.59Z"/></g><g id="g192"><path id="path194" class="cls-4" d="M18.34,28.12s7.37,3,11.1-3.47C29.49,24.65,21.91,22.18,18.34,28.12Z"/><path id="path196" class="cls-4" d="M18.34,28.12S23,21.7,17.7,16.49C17.76,16.49,13.5,23.18,18.34,28.12Z"/></g><path id="path198" class="cls-4" d="M21.4,23.66s7.89-.85,8.15-8.27C29.65,15.33,21.81,16.71,21.4,23.66Z"/></g></g><polygon id="polygon200" class="cls-5" points="93.93 80.37 93.93 91.46 116.82 91.46 108.87 80.37 116.82 69.21 93.93 69.21 93.93 80.37"/><polygon id="polygon202" class="cls-6" points="106.25 63.95 93.93 66.58 93.93 75.1 93.93 91.46 106.25 83.57 106.25 63.95"/><polygon id="polygon204" class="cls-5" points="26.39 80.37 26.39 91.46 3.5 91.46 11.39 80.37 3.5 69.21 26.39 69.21 26.39 80.37"/><polygon id="polygon206" class="cls-6" points="14.02 83.57 14.02 63.95 26.39 66.58 26.39 91.46 14.02 83.57"/><path id="path208" class="cls-7" d="M13.86,61.32s19.2,8.84,46.3,8.84,46.29-8.84,46.29-8.84V83.83s-18.83,8.85-46.29,8.85-46.3-8.85-46.3-8.85Z"/><g id="g210"><path id="path212" class="cls-1" d="M50.22,82.25a2.75,2.75,0,0,1,.94.27,2,2,0,0,1,.64.53,1.62,1.62,0,0,1,.31.63,1.64,1.64,0,0,1,0,.73,3.67,3.67,0,0,1-.2.74,2.06,2.06,0,0,1-.42.58,1.69,1.69,0,0,1-.7.37,3.5,3.5,0,0,1-1,.09L48.41,86l-.22,2.16-1.31-.1.53-6A26.32,26.32,0,0,1,50.22,82.25Zm-.58,2.8a1.93,1.93,0,0,0,.48,0,.66.66,0,0,0,.36-.11,1.35,1.35,0,0,0,.32-.26,1.09,1.09,0,0,0,.1-1,1,1,0,0,0-.26-.32.48.48,0,0,0-.38-.15,3.25,3.25,0,0,1-.42-.11l-1-.1-.12,1.79,1,.21Z"/><path id="path214" class="cls-1" d="M53,84.78a1.36,1.36,0,0,1,.53-.42,1.64,1.64,0,0,1,.68-.21,4.57,4.57,0,0,1,.74,0,2.62,2.62,0,0,1,.68.12,2.72,2.72,0,0,1,.63.2,1.75,1.75,0,0,1,.48.42,1.2,1.2,0,0,1,.16.64l-.11,2.27v.57a1.44,1.44,0,0,0,.11.42H55.63a.38.38,0,0,1,0-.21v-.21a1.85,1.85,0,0,1-.68.42,1.91,1.91,0,0,1-.79.1,2,2,0,0,1-.58-.1,1,1,0,0,1-.47-.26,1.1,1.1,0,0,1-.32-.42,1.05,1.05,0,0,1-.1-.58,1.12,1.12,0,0,1,.15-.64c.11-.16.21-.32.37-.36a2.62,2.62,0,0,1,.48-.22,2.7,2.7,0,0,1,.58-.1,2.26,2.26,0,0,1,.52,0h.48a.77.77,0,0,0,.31-.16.32.32,0,0,0,.15-.32v-.31a.65.65,0,0,0-.16-.21.46.46,0,0,0-.26-.1.58.58,0,0,0-.32,0,1,1,0,0,0-.58.16.59.59,0,0,0-.26.52H53a.75.75,0,0,1,.14-.69Zm2.27,1.79a.39.39,0,0,1-.26,0l-.26.06h-.58a.3.3,0,0,0-.26.12c-.11.11-.16.1-.16.2s-.1.16-.1.26,0,.22,0,.26a.6.6,0,0,0,.16.22.42.42,0,0,0,.26.1h.31a1.62,1.62,0,0,0,.58-.11c.16-.1.26-.15.32-.26a2.25,2.25,0,0,1,.16-.31.62.62,0,0,0,0-.27v-.47h-.32Z"/><path id="path216" class="cls-1" d="M58.73,84.31v.84h0a1.11,1.11,0,0,1,.27-.37,2.76,2.76,0,0,1,.37-.31,1.38,1.38,0,0,1,.42-.21,1.24,1.24,0,0,1,.47,0h.26v1.13h-.47a2.35,2.35,0,0,0-.58.1.75.75,0,0,0-.36.32,1.13,1.13,0,0,0-.19.38,1.88,1.88,0,0,0-.06.58v2H57.64V84.39Z"/><path id="path218" class="cls-1" d="M63.26,84.31v.74h-.93v2.16a.68.68,0,0,0,.11.42c.1.1.21.1.42.1h.42v1a1.09,1.09,0,0,1-.36,0,.77.77,0,0,0-.37,0,1.57,1.57,0,0,1-.53,0l-.47-.15a.88.88,0,0,1-.42-.84V85.11h-.74v-.8h.8V83.05h1.22v1.32Z"/><path id="path220" class="cls-1" d="M65,84.21v.63H65a1.21,1.21,0,0,1,.58-.58,1.27,1.27,0,0,1,.73-.21,1.76,1.76,0,0,1,.79.1,1.24,1.24,0,0,1,.53.37,1.1,1.1,0,0,1,.26.58,2.65,2.65,0,0,1,.11.74l.15,2.68H67l-.08-2.42a2.15,2.15,0,0,0-.21-.79.82.82,0,0,0-.63-.26,1,1,0,0,0-.68.31,1.65,1.65,0,0,0-.21,1l.1,2.27H64l-.21-4.36L65,84.12Z"/><path id="path222" class="cls-1" d="M70.29,87.26a1.28,1.28,0,0,0,.79.2,1.07,1.07,0,0,0,.63-.26,1.1,1.1,0,0,0,.32-.42l1-.1a2.49,2.49,0,0,1-.68,1.2,2.23,2.23,0,0,1-1.26.48,1.86,1.86,0,0,1-1-.1,2.36,2.36,0,0,1-.74-.42,4.45,4.45,0,0,1-.52-.69,2.4,2.4,0,0,1-.26-1,2,2,0,0,1,.1-.94,2.15,2.15,0,0,1,.42-.79,4.17,4.17,0,0,1,.68-.58,2,2,0,0,1,.9-.26,1.65,1.65,0,0,1,1,.15,2.45,2.45,0,0,1,.74.53,3,3,0,0,1,.47.79,2.73,2.73,0,0,1,.16.94L70,86.31A1.26,1.26,0,0,0,70.29,87.26Zm1.13-2.42a.85.85,0,0,0-.68-.21c-.2,0-.36,0-.48.15s-.2.16-.3.27a.77.77,0,0,0-.16.31.59.59,0,0,0-.06.32l1.94-.16A.79.79,0,0,0,71.42,84.84Z"/><path id="path224" class="cls-1" d="M74.69,83.47l.1.84h0a1.65,1.65,0,0,1,.21-.42,2.3,2.3,0,0,1,.32-.37,1.68,1.68,0,0,1,.37-.27c.16,0,.26-.1.42-.15h.26l.16,1.13h-.21a.61.61,0,0,0-.27,0,1.1,1.1,0,0,0-.52.22.7.7,0,0,0-.32.36.83.83,0,0,0-.15.48,1.88,1.88,0,0,0,0,.58l.26,1.94L74.11,88l-.53-4.32,1.06-.2Z"/></g><g id="g226"><path id="path228" class="cls-1" d="M23.59,68.32a1.91,1.91,0,0,1,.9.47,2.92,2.92,0,0,1,.48.63,1.74,1.74,0,0,1,.16.68,3.09,3.09,0,0,1-.12.74,4.12,4.12,0,0,1-.3.64,1.6,1.6,0,0,1-.54.46,1.13,1.13,0,0,1-.73.22,2.62,2.62,0,0,1-1-.16l-1.32-.42-.68,2-1.26-.43,1.89-5.68Zm-1.2,2.58a1.84,1.84,0,0,0,.42.1.61.61,0,0,0,.42,0,.36.36,0,0,0,.32-.21,1.49,1.49,0,0,0,.26-.42.94.94,0,0,0,0-.47c0-.16-.12-.27-.16-.38a2.6,2.6,0,0,0-.32-.26c-.16,0-.26-.16-.42-.16l-1-.31-.51,1.73Z"/><path id="path230" class="cls-1" d="M26.85,71l-.2.78h0l.32-.3a1,1,0,0,1,.42-.22,2,2,0,0,1,.42-.1,1.29,1.29,0,0,1,.48,0l.26.1-.32,1.14a.3.3,0,0,1-.2-.11c-.11-.1-.16,0-.22-.11a1.14,1.14,0,0,0-.58,0,1.11,1.11,0,0,0-.42.21.67.67,0,0,0-.31.37,1.46,1.46,0,0,0-.21.52l-.53,1.9-1.13-.32,1.2-4.2,1,.36Z"/><path id="path232" class="cls-1" d="M29.17,75.1a1.45,1.45,0,0,0,.69.48,1,1,0,0,0,.68,0,.88.88,0,0,0,.42-.32l1.06.26a1.88,1.88,0,0,1-1.06.9,2.25,2.25,0,0,1-1.31,0,3.71,3.71,0,0,1-.9-.37,2,2,0,0,1-.84-1.47,2,2,0,0,1,.1-1,3.25,3.25,0,0,1,.38-.85,1.75,1.75,0,0,1,.62-.62,2.58,2.58,0,0,1,.79-.32,1.7,1.7,0,0,1,.95.06,2.11,2.11,0,0,1,.89.46,1.89,1.89,0,0,1,.54.74,3.09,3.09,0,0,1,.2.9,2.73,2.73,0,0,1-.16.94l-3-.74A.82.82,0,0,0,29.17,75.1ZM31,73.16a1,1,0,0,0-.58-.42,1.93,1.93,0,0,0-.48,0,1.73,1.73,0,0,0-.37.16c-.1.1-.21.16-.26.26a1,1,0,0,1-.16.26l1.9.48A.81.81,0,0,0,31,73.16Z"/><path id="path234" class="cls-1" d="M34.54,72.94l-.1.58h0a2,2,0,0,1,.68-.42,1.36,1.36,0,0,1,.8,0,1.76,1.76,0,0,1,.73.31,1.18,1.18,0,0,1,.43.68,2.19,2.19,0,0,1,.62-.42,1.11,1.11,0,0,1,.84,0,2.09,2.09,0,0,1,.64.21,1.18,1.18,0,0,1,.46.37,1.55,1.55,0,0,1,.28.52,1.33,1.33,0,0,1-.06.74l-.58,2.89-1.2-.26.46-2.42a1,1,0,0,0,0-.42.4.4,0,0,0,0-.37.73.73,0,0,0-.58-.42.4.4,0,0,0-.42,0,1.6,1.6,0,0,0-.31.22,1,1,0,0,0-.21.32,1,1,0,0,0-.1.42l-.48,2.36-1.21-.26.47-2.42a1.15,1.15,0,0,0,0-.37.4.4,0,0,0,0-.37l-.16-.32a.75.75,0,0,0-.42-.2h-.26a.75.75,0,0,0-.32.1,1.92,1.92,0,0,0-.32.26,1.42,1.42,0,0,0-.2.53l-.48,2.47L32.33,77l.85-4.26Z"/><path id="path236" class="cls-1" d="M42.07,74.32l-.7,4.31-1.2-.21.68-4.32ZM41,73.48l.16-1,1.2.2-.14,1Z"/><path id="path238" class="cls-1" d="M45.38,79.11l.1-.64h0a1.32,1.32,0,0,1-.68.48,2.41,2.41,0,0,1-.8.1,2.8,2.8,0,0,1-.79-.21,1.27,1.27,0,0,1-.47-.42,1.92,1.92,0,0,1-.21-.58,1.17,1.17,0,0,1,0-.74l.38-2.68,1.2.16-.32,2.51a1.12,1.12,0,0,0,.12.84.76.76,0,0,0,.57.38.85.85,0,0,0,.74-.22,1.59,1.59,0,0,0,.37-.94l.31-2.27,1.21.15-.52,4.34A6,6,0,0,0,45.38,79.11Z"/><path id="path240" class="cls-1" d="M49.12,75.16v.58h0a1.62,1.62,0,0,1,.62-.48,2.37,2.37,0,0,1,.8-.16,3,3,0,0,1,.72.21,1.11,1.11,0,0,1,.48.63,1.88,1.88,0,0,1,.58-.47,1.1,1.1,0,0,1,.79-.16,2,2,0,0,1,.63.16,2.51,2.51,0,0,1,.48.32,1.15,1.15,0,0,1,.31.52,1.68,1.68,0,0,1,0,.74L54.37,80l-1.21-.12.21-2.46v-.43a.92.92,0,0,0-.1-.36.53.53,0,0,0-.22-.27,1,1,0,0,0-.42-.1.57.57,0,0,0-.42.1.68.68,0,0,0-.26.27c-.11.1-.11.21-.16.36a1.55,1.55,0,0,0,0,.43l-.22,2.42-1.2-.11.2-2.47c0-.16.06-.27.06-.42a.78.78,0,0,0-.06-.37.43.43,0,0,0-.2-.26A1,1,0,0,0,50,76a.62.62,0,0,0-.27,0,.3.3,0,0,0-.31.16.57.57,0,0,0-.27.32A1.2,1.2,0,0,0,49,77l-.16,2.48-1.24-.11L47.86,75l1.22.11Z"/><path id="path242" class="cls-1" d="M58.92,78.53a1,1,0,0,0,.31.36,2.18,2.18,0,0,0,.43.22,1,1,0,0,1,.52.1,1.09,1.09,0,0,0,.36,0,2.36,2.36,0,0,0,.38-.1,2.69,2.69,0,0,0,.32-.27.47.47,0,0,0,.14-.36.6.6,0,0,0-.14-.43,1.45,1.45,0,0,0-.43-.26c-.15,0-.37-.16-.58-.21a4.11,4.11,0,0,1-.68-.21,2.79,2.79,0,0,1-.69-.21,1.81,1.81,0,0,1-.58-.32,2.66,2.66,0,0,1-.42-.52,1.56,1.56,0,0,1-.15-.74,2,2,0,0,1,.21-.84,1.32,1.32,0,0,1,.52-.58,3,3,0,0,1,.74-.36,2.16,2.16,0,0,1,.87-.12,4.44,4.44,0,0,1,.9.12,2.36,2.36,0,0,1,.79.36,1.58,1.58,0,0,1,.53.64,1.78,1.78,0,0,1,.2.88H61.19a1.19,1.19,0,0,0-.1-.46.82.82,0,0,0-.26-.32c-.11-.1-.27-.1-.37-.16a1.29,1.29,0,0,0-.48,0,.55.55,0,0,0-.31,0l-.32.1a.88.88,0,0,0-.21.22.67.67,0,0,0-.1.3v.32a.51.51,0,0,0,.26.22,4,4,0,0,0,.58.2,5.21,5.21,0,0,1,1,.27.69.69,0,0,1,.46.15,1.38,1.38,0,0,1,.58.32,2.22,2.22,0,0,1,.53.53,1.44,1.44,0,0,1,.21.84,2,2,0,0,1-.16.79,1.4,1.4,0,0,1-.47.63,2.61,2.61,0,0,1-.79.42,3.38,3.38,0,0,1-1.14.16,2.87,2.87,0,0,1-1-.16,2.31,2.31,0,0,1-1.42-1.14,1.81,1.81,0,0,1-.21-1h1.32a3.5,3.5,0,0,0,.15.64Z"/><path id="path244" class="cls-1" d="M66.42,79.83v-.62h0a1.61,1.61,0,0,1-.58.58,1.29,1.29,0,0,1-.74.2,1.61,1.61,0,0,1-.78-.1,2,2,0,0,1-.54-.36,1.39,1.39,0,0,1-.26-.58,3.76,3.76,0,0,1-.1-.74l-.1-2.69,1.2,0,.1,2.48a2.4,2.4,0,0,0,.22.78.65.65,0,0,0,.64.26,1,1,0,0,0,.68-.31,1.65,1.65,0,0,0,.2-1l-.1-2.27h1.21l.21,4.38Z"/><path id="path246" class="cls-1" d="M69.36,75.31l.06.58h0a1.87,1.87,0,0,1,.54-.58,1.18,1.18,0,0,1,.73-.21,1.25,1.25,0,0,1,.89.16,2,2,0,0,1,1.14,1.21,3.93,3.93,0,0,1,.21.9,2.17,2.17,0,0,1-.05.84,1.88,1.88,0,0,1-.32.74,2.1,2.1,0,0,1-.57.58,1.66,1.66,0,0,1-.84.26,1.55,1.55,0,0,1-1.42-.58h-.06l.21,2-1.21.12-.52-5.9A5,5,0,0,1,69.36,75.31Zm1.85,3.26a1,1,0,0,0,.31-.36,1.7,1.7,0,0,0,.16-.48,2.84,2.84,0,0,0-.1-1,4.11,4.11,0,0,0-.21-.42,1.14,1.14,0,0,0-.37-.32,1,1,0,0,0-.53-.1A2,2,0,0,0,70,76a1,1,0,0,0-.32.37,2.6,2.6,0,0,0-.16.47,1,1,0,0,0,0,.53.83.83,0,0,0,.11.52,3.29,3.29,0,0,0,.21.42,1.14,1.14,0,0,0,.37.32.89.89,0,0,0,.53.1A.81.81,0,0,0,71.21,78.57Z"/><path id="path248" class="cls-1" d="M74.47,74.82l.1.58h0a1.14,1.14,0,0,1,.52-.58,1.82,1.82,0,0,1,.74-.26,1.22,1.22,0,0,1,.9.1,3,3,0,0,1,.68.42,1.89,1.89,0,0,1,.47.69,3.64,3.64,0,0,1,.27.89,2.37,2.37,0,0,1,0,.84,3.28,3.28,0,0,1-.27.8,1.81,1.81,0,0,1-.52.58,2,2,0,0,1-.84.3,1.34,1.34,0,0,1-.79-.1,1.31,1.31,0,0,1-.64-.42h0l.27,2-1.22.16L73.41,75C73.31,74.94,74.47,74.82,74.47,74.82Zm1.94,3.26a.92.92,0,0,0,.32-.36,1.33,1.33,0,0,0,.1-.48,1.51,1.51,0,0,0,0-.52c0-.16,0-.38-.11-.53a1,1,0,0,0-.26-.42,1,1,0,0,0-.36-.31.8.8,0,0,0-.53,0,1,1,0,0,0-.48.21.93.93,0,0,0-.31.37,1.89,1.89,0,0,0-.11.47,1.57,1.57,0,0,0,.06.53,1.56,1.56,0,0,0,.15.52,1.17,1.17,0,0,0,.27.42.81.81,0,0,0,.37.26.77.77,0,0,0,.52,0,.94.94,0,0,0,.42-.16Z"/><path id="path250" class="cls-1" d="M78.63,75.52a1.61,1.61,0,0,1,.31-.78,1.53,1.53,0,0,1,.63-.58,2.7,2.7,0,0,1,.9-.32,2.53,2.53,0,0,1,1,0,1.92,1.92,0,0,1,.78.36,1.75,1.75,0,0,1,.59.62,2.62,2.62,0,0,1,.32.9,2.48,2.48,0,0,1,0,.94,1.47,1.47,0,0,1-.36.79,2.53,2.53,0,0,1-.64.58,2.83,2.83,0,0,1-.9.31,2.48,2.48,0,0,1-.94,0,1.8,1.8,0,0,1-.79-.37,1.68,1.68,0,0,1-.58-.63,2.53,2.53,0,0,1-.31-.9A4.76,4.76,0,0,1,78.63,75.52Zm1.31,1.21a1.14,1.14,0,0,0,.26.42,1.59,1.59,0,0,0,.37.27.8.8,0,0,0,.53,0,1,1,0,0,0,.48-.2.73.73,0,0,0,.26-.38,1.46,1.46,0,0,0,.1-.46,2.44,2.44,0,0,0,0-.54c-.06-.15-.11-.36-.16-.52a1.17,1.17,0,0,0-.27-.42,1.9,1.9,0,0,0-.37-.26.77.77,0,0,0-.52,0,1.09,1.09,0,0,0-.48.21.81.81,0,0,0-.26.37,1.52,1.52,0,0,0-.1.47,1.57,1.57,0,0,0,0,.53l.16.51Z"/><path id="path252" class="cls-1" d="M84.57,73.16l.15.78h.06c0-.14.1-.28.16-.42a1.83,1.83,0,0,1,.26-.36.86.86,0,0,1,.37-.26.63.63,0,0,1,.42-.16.22.22,0,0,1,.27,0l.2,1.14H86a1.15,1.15,0,0,0-.53.2,2.67,2.67,0,0,0-.31.36,2.08,2.08,0,0,0-.11.48,1.88,1.88,0,0,0,.06.58l.42,2-1.22.26-.88-4.26,1.13-.31Z"/><path id="path254" class="cls-1" d="M89,72.2l.21.8-.84.2.47,2.11c.06.21.11.32.22.37s.2,0,.42,0c0-.05.16-.05.2-.05a.22.22,0,0,1,.16,0l.22.88a1,1,0,0,1-.32.12,1.56,1.56,0,0,0-.37.1,3.1,3.1,0,0,1-.53.1,1.24,1.24,0,0,1-.47,0,.86.86,0,0,1-.37-.26,1.16,1.16,0,0,1-.26-.52l-.58-2.53-.74.16-.21-.79.74-.16-.32-1.32,1.14-.26.32,1.26.89-.16Z"/><path id="path256" class="cls-1" d="M89.41,71.41l-.26-1,1.13-.31.27.94Zm1.32.32,1,4.2-1.13.32L89.58,72Z"/><path id="path258" class="cls-1" d="M92.73,71.21l.16.57h0a1.29,1.29,0,0,1,.42-.68,1.36,1.36,0,0,1,.68-.36,2.42,2.42,0,0,1,.8-.11,2,2,0,0,1,.58.21,1.22,1.22,0,0,1,.42.48,3.09,3.09,0,0,1,.26.68l.74,2.58-1.14.31L95,72.52a2.48,2.48,0,0,0-.38-.74c-.16-.14-.36-.14-.68-.1a.94.94,0,0,0-.62.48,1.24,1.24,0,0,0,0,1l.63,2.2-1.13.32-1.21-4.2,1.14-.27Z"/><path id="path260" class="cls-1" d="M101.78,73.32a1.07,1.07,0,0,1-.11.68,1.62,1.62,0,0,1-.53.68,3.47,3.47,0,0,1-1.13.58,2.86,2.86,0,0,1-.64.16,1.56,1.56,0,0,1-.68,0,2.34,2.34,0,0,1-.58-.26,2.09,2.09,0,0,1-.42-.52l1.13-.38a1,1,0,0,0,.48.38,1.14,1.14,0,0,0,.58-.06,1.16,1.16,0,0,0,.63-.52.93.93,0,0,0,0-.8l-.22-.58h0a1.22,1.22,0,0,1-.38.69,1.92,1.92,0,0,1-.68.43,1.7,1.7,0,0,1-.84.1,4.07,4.07,0,0,1-.74-.26,1.53,1.53,0,0,1-.52-.58,4.09,4.09,0,0,1-.36-.8,1.88,1.88,0,0,1-.16-.84,1.8,1.8,0,0,1,.16-.79,1.19,1.19,0,0,1,.42-.62,1.71,1.71,0,0,1,.72-.43,1.46,1.46,0,0,1,.8-.1,1.21,1.21,0,0,1,.68.37h.06l-.22-.58,1.14-.37,1.32,3.9v.57Zm-2-.84a.82.82,0,0,0,.2-.38,1,1,0,0,0,0-.42,1.52,1.52,0,0,0-.1-.47c-.06-.15-.16-.31-.22-.47a1.56,1.56,0,0,0-.31-.37,1,1,0,0,0-.42-.21.8.8,0,0,0-.53,0,.6.6,0,0,0-.36.26.75.75,0,0,0-.22.36,1.48,1.48,0,0,0,0,.42,1.52,1.52,0,0,0,.1.48,1,1,0,0,0,.21.42,2.73,2.73,0,0,0,.32.37,1.36,1.36,0,0,0,.37.21.55.55,0,0,0,.47,0C99.46,72.54,99.68,72.54,99.78,72.48Z"/></g></svg>