<svg id="Layer_1" data-name="Layer 1" xmlns="http://www.w3.org/2000/svg" viewBox="0 0 120 120"><defs><style>.cls-1{fill:none;}.cls-1,.cls-5{stroke:#fff;stroke-miterlimit:10;}.cls-2{fill:#4284f4;}.cls-3{fill:#154aa1;}.cls-4,.cls-5{fill:#fff;}.cls-5{stroke-width:0.1px;}</style></defs><circle class="cls-1" cx="60" cy="60.41" r="58.9"/><circle class="cls-2" cx="60" cy="60.41" r="44.83"/><circle class="cls-3" cx="60" cy="60.41" r="41.32"/><circle class="cls-4" cx="60" cy="60.41" r="39.38"/><polygon class="cls-2" points="116.02 87.01 3.98 87.01 13.32 77.58 3.98 68.15 116.02 68.15 106.68 77.58 116.02 87.01"/><path class="cls-5" d="M26.74,72.65H25.38v-.49h3.29v.49H27.31v4h-.57Z"/><path class="cls-5" d="M29,74.39c0-1.44.79-2.31,1.92-2.31s1.92.88,1.92,2.31S32,76.74,30.9,76.74,29,75.83,29,74.39Zm3.25,0c0-1.12-.53-1.81-1.33-1.81s-1.33.69-1.33,1.81.53,1.85,1.33,1.85S32.23,75.51,32.23,74.39Z"/><path class="cls-5" d="M33.72,72.16H35c1,0,1.68.34,1.68,1.33S36,74.87,35,74.87h-.74v1.79h-.57ZM35,74.41c.79,0,1.16-.28,1.16-.92s-.4-.86-1.19-.86h-.64v1.78Z"/><path class="cls-5" d="M38.38,72.16H39l.47,2.45c.08.48.17,1,.26,1.45h0c.1-.48.21-1,.31-1.45l.63-2.45h.52l.62,2.45c.11.47.22,1,.33,1.45h0c.09-.49.17-1,.26-1.45l.47-2.45h.55l-.93,4.5h-.69L41.14,74c-.07-.36-.15-.68-.21-1h0c-.07.35-.15.67-.23,1L40,76.66h-.68Z"/><path class="cls-5" d="M44.15,72.16h2.59v.49h-2v1.4h1.71v.49H44.72v1.63h2.09v.49H44.15Z"/><path class="cls-5" d="M47.7,72.16H49c.92,0,1.55.31,1.55,1.1a1,1,0,0,1-.66,1v0a1,1,0,0,1,.91,1.07c0,.89-.69,1.32-1.7,1.32H47.7Zm1.23,1.92c.77,0,1.09-.29,1.09-.74s-.36-.72-1.06-.72h-.69v1.46Zm.12,2.12c.77,0,1.22-.27,1.22-.88s-.43-.81-1.22-.81h-.78V76.2Z"/><path class="cls-5" d="M53,72.16h1.12a2,2,0,0,1,2.13,2.23,2,2,0,0,1-2.1,2.27H53Zm1.08,4c1.05,0,1.58-.66,1.58-1.8s-.53-1.76-1.58-1.76h-.51v3.56Z"/><path class="cls-5" d="M57.11,72.16H59.7v.49h-2v1.4h1.7v.49h-1.7v1.63h2.09v.49H57.11Z"/><path class="cls-5" d="M60,72.16h.6l.73,2.43c.16.53.26,1,.43,1.49h0c.16-.53.27-1,.43-1.49L63,72.16h.58l-1.43,4.5h-.66Z"/><path class="cls-5" d="M64.08,72.16h2.59v.49h-2v1.4h1.71v.49H64.65v1.63h2.09v.49H64.08Z"/><path class="cls-5" d="M67.63,72.16h.57v4h2v.49H67.63Z"/><path class="cls-5" d="M70.45,74.39c0-1.44.79-2.31,1.92-2.31s1.92.88,1.92,2.31-.79,2.35-1.92,2.35S70.45,75.83,70.45,74.39Zm3.25,0c0-1.12-.53-1.81-1.33-1.81S71,73.27,71,74.39s.53,1.85,1.33,1.85S73.7,75.51,73.7,74.39Z"/><path class="cls-5" d="M75.19,72.16h1.29c1,0,1.68.34,1.68,1.33s-.67,1.38-1.66,1.38h-.74v1.79h-.57Zm1.24,2.25c.79,0,1.16-.28,1.16-.92s-.4-.86-1.19-.86h-.64v1.78Z"/><path class="cls-5" d="M79,72.16h.69l.86,2.4c.11.31.21.63.32.94h0c.11-.31.2-.63.31-.94l.85-2.4h.69v4.5h-.53V74.18c0-.39,0-.93.07-1.33h0l-.36,1-.85,2.32h-.38l-.85-2.32-.36-1h0c0,.4.07.94.07,1.33v2.48H79Z"/><path class="cls-5" d="M83.92,72.16h2.59v.49h-2v1.4h1.7v.49h-1.7v1.63h2.09v.49H83.92Z"/><path class="cls-5" d="M87.46,72.16h.59L89.68,75l.48.93h0c0-.45-.07-1-.07-1.43V72.16h.54v4.5h-.59l-1.63-2.83L88,72.9h0c0,.46.07.93.07,1.4v2.36h-.54Z"/><path class="cls-5" d="M92.76,72.65H91.4v-.49h3.29v.49H93.33v4h-.57Z"/><path class="cls-5" d="M43.67,81.84a2.07,2.07,0,0,1,2-2.34,1.69,1.69,0,0,1,1.24.56l-.32.37a1.21,1.21,0,0,0-.91-.42c-.85,0-1.41.69-1.41,1.81s.54,1.84,1.39,1.84a1.34,1.34,0,0,0,1-.5l.31.36a1.73,1.73,0,0,1-1.38.65C44.5,84.17,43.67,83.3,43.67,81.84Z"/><path class="cls-5" d="M47.31,81.82c0-1.44.79-2.32,1.92-2.32s1.93.88,1.93,2.32-.8,2.35-1.93,2.35S47.31,83.26,47.31,81.82Zm3.25,0C50.56,80.7,50,80,49.23,80s-1.33.69-1.33,1.81.53,1.84,1.33,1.84S50.56,82.94,50.56,81.82Z"/><path class="cls-5" d="M52.05,79.59h.69l.87,2.4c.1.31.21.62.31.94h0c.11-.32.21-.63.31-.94l.86-2.4h.68v4.49h-.53V81.61c0-.39,0-.94.08-1.33h0l-.36,1-.85,2.33h-.38l-.85-2.33-.35-1h0c0,.39.07.94.07,1.33v2.47h-.52Z"/><path class="cls-5" d="M57,79.59h1.28c1,0,1.69.34,1.69,1.32s-.68,1.39-1.66,1.39h-.74v1.78H57Zm1.24,2.24c.78,0,1.16-.28,1.16-.92s-.4-.86-1.19-.86h-.64v1.78Z"/><path class="cls-5" d="M61.36,79.59H62l1.52,4.49h-.61l-.78-2.51c-.16-.5-.31-1-.45-1.51h0c-.14.52-.28,1-.44,1.51l-.8,2.51h-.58Zm-.72,2.67h2.07v.45H60.64Z"/><path class="cls-5" d="M64.07,79.59h.59l1.63,2.82.48.93h0c0-.45-.07-1-.07-1.43V79.59h.54v4.49h-.59l-1.63-2.83-.48-.92h0c0,.45.07.93.07,1.4v2.35h-.54Z"/><path class="cls-5" d="M68.43,79.59H69v4.49h-.58Z"/><path class="cls-5" d="M70.17,79.59h2.59v.48h-2v1.41h1.7V82h-1.7V83.6h2.09v.48H70.17Z"/><path class="cls-5" d="M73.38,83.5l.35-.39a1.76,1.76,0,0,0,1.24.55c.59,0,.94-.29.94-.73s-.33-.6-.75-.79l-.65-.28a1.27,1.27,0,0,1-.91-1.16A1.28,1.28,0,0,1,75,79.5a1.87,1.87,0,0,1,1.32.56l-.3.37A1.45,1.45,0,0,0,75,80c-.51,0-.84.25-.84.65s.39.6.74.75l.64.28a1.25,1.25,0,0,1,.93,1.2A1.36,1.36,0,0,1,75,84.17,2.19,2.19,0,0,1,73.38,83.5Z"/><path class="cls-2" d="M66.16,31.61c0,1.45,0,2.91,0,4.36,0,.16,0,.2-.21.2H55.6a1.08,1.08,0,0,0-1.05,1.05c0,3.63,0,7.27,0,10.9H50a.41.41,0,0,1,0-.19v-12a4.24,4.24,0,0,1,1.09-2.52,5.56,5.56,0,0,1,2.3-1.58,3.93,3.93,0,0,1,.9-.21H66A.31.31,0,0,1,66.16,31.61Z"/><path class="cls-2" d="M56.27,48.11V43.79c0-.16,0-.21.2-.21h5.07a.49.49,0,0,0,.55-.56c0-.27,0-.54,0-.81,0-.12,0-.15-.16-.15H56.48c-.21,0-.21,0-.21-.22,0-1.07,0-2.15,0-3.23a.68.68,0,0,1,.74-.74c.53,0,1.05,0,1.57,0h7.74c.17,0,.21.05.21.21,0,2,0,3.9,0,5.84a4,4,0,0,1-.83,2.4,4.91,4.91,0,0,1-2.82,1.76l0,0Z"/><path class="cls-2" d="M89.38,59.83c-.07.16-.08.34-.15.5a2,2,0,0,1-1.43,1.2A2.45,2.45,0,0,1,86,61.31a2.58,2.58,0,0,1-.91-.76c0-.07-.06-.11,0-.18.25-.2.47-.43.7-.65.07-.07.1-.07.16,0a1.45,1.45,0,0,0,1.36.65.81.81,0,0,0,.72-.48.75.75,0,0,0,0-.8.83.83,0,0,0-.46-.29,11.19,11.19,0,0,1-1.31-.44,1.65,1.65,0,0,1-1.1-1.59,2.08,2.08,0,0,1,.29-1.24,1.91,1.91,0,0,1,1.31-.88,2.32,2.32,0,0,1,1.57.22,2.21,2.21,0,0,1,.79.63c0,.05.06.07,0,.13l-.63.68c-.06.07-.1.06-.16,0a1.85,1.85,0,0,0-1-.53.88.88,0,0,0-.87.4.78.78,0,0,0,.13.91,1.09,1.09,0,0,0,.39.19l.82.23a2.13,2.13,0,0,1,1.41,1.07,3.74,3.74,0,0,1,.17.57Z"/><path class="cls-2" d="M38.22,58.61c0,.61,0,1.23,0,1.85a.24.24,0,0,1-.11.21,6.81,6.81,0,0,1-2.06,1,3.72,3.72,0,0,1-1.41.05,4.58,4.58,0,0,1-1.65-.5,4.81,4.81,0,0,1-.91-.64,4.53,4.53,0,0,1-.95-1.19,3.78,3.78,0,0,1-.43-1.29A5.26,5.26,0,0,1,31,55.29a5.06,5.06,0,0,1,.92-1.43,3.81,3.81,0,0,1,2.52-1.28,4.76,4.76,0,0,1,2,.26,4.41,4.41,0,0,1,1.54.89c.08.07.14.13,0,.24s-.44.51-.65.77c0,0-.08,0-.12,0A2.85,2.85,0,0,0,35.67,54a3.05,3.05,0,0,0-2,.17,3.15,3.15,0,0,0-1.17,1.15,3.84,3.84,0,0,0-.53,2.34,3.08,3.08,0,0,0,.69,1.75,3.21,3.21,0,0,0,2,1.14,2.4,2.4,0,0,0,1.74-.31c.19-.12.36-.27.54-.41a.2.2,0,0,0,.07-.18c0-.54,0-1.08,0-1.61,0-.13,0-.17-.16-.17H34.51c-.15,0-.16-.05-.12-.16.1-.32.21-.64.3-1a.16.16,0,0,1,.19-.14h3.17c.13,0,.17,0,.17.16C38.21,57.36,38.22,58,38.22,58.61Z"/><path class="cls-2" d="M77,55.65a2.32,2.32,0,0,1,.65-.67,1.57,1.57,0,0,1,1.06-.21,3.08,3.08,0,0,1,.53.08,1.43,1.43,0,0,1,.8.73c.09.16.09.17.19,0a1.83,1.83,0,0,1,1.24-.8,2.14,2.14,0,0,1,1.87.47,1.93,1.93,0,0,1,.54,1.06,4.25,4.25,0,0,1,.07.8q0,2.12,0,4.23c0,.12,0,.18-.16.19l-1,.15V57.45a4.4,4.4,0,0,0-.06-.73.87.87,0,0,0-.83-.75,1.16,1.16,0,0,0-1.3,1.14c-.09.76,0,1.53,0,2.29s0,1.3,0,2a.15.15,0,0,1-.14.18l-1,.19c-.06,0-.08,0-.08-.07V57a1,1,0,0,0-.79-1,1,1,0,0,0-1.25.74,2.16,2.16,0,0,0-.12.76c0,1.29,0,2.57,0,3.85,0,.13,0,.19-.16.21l-1,.17c-.09,0-.09,0-.09-.07v-.1c0-2.1,0-4.21,0-6.31,0-.16.06-.2.19-.22l.85-.14c.08,0,.1,0,.09.07Z"/><path class="cls-2" d="M62.59,57.22c0-1.43,0-2.86,0-4.29,0-.14,0-.19.18-.19h4.05c.12,0,.19,0,.21.16,0,.31.12.62.19.93s0,.17-.14.17h-3c-.1,0-.14,0-.14.13v2.1c0,.13.06.13.16.13h2.24c.15,0,.19,0,.19.19s0,.57,0,.85,0,.2-.19.19H64.09c-.15,0-.18,0-.18.18v3.57c0,.12,0,.18-.15.2-.37,0-.73.11-1.1.17,0,0-.07,0-.07-.06V57.22Z"/><path class="cls-2" d="M72.53,56.13c.11-.19.23-.38.35-.56A1.5,1.5,0,0,1,74,54.88c.3-.05.6-.07.91-.1.15,0,.17,0,.12.15-.15.36-.3.71-.44,1.07a.24.24,0,0,1-.26.17,1.42,1.42,0,0,0-1.47,1,3.62,3.62,0,0,0-.26,1.42c0,.91,0,1.82,0,2.73,0,.12,0,.18-.15.19l-1,.17c-.06,0-.09,0-.09-.08V55.23c0-.12,0-.19.16-.21a4.55,4.55,0,0,0,.82-.15c.16,0,.15,0,.15.13v1.11Z"/><path class="cls-2" d="M68.46,58.34V55.21c0-.11,0-.17.15-.18l.91-.15c.11,0,.17,0,.17.14v6.34c0,.1,0,.15-.12.16l-1,.15c-.13,0-.13-.06-.13-.15Z"/><path class="cls-2" d="M69.92,53.32c-.08.1-.15.21-.22.31s-.34.42-.5.64-.12.1-.19,0l-.64-.89c-.06-.08,0-.14,0-.19l.66-.86c.06-.08.1-.11.18,0,.2.3.42.58.63.87A1.17,1.17,0,0,1,69.92,53.32Z"/><path class="cls-2" d="M61,52.76v-.11c0-.06,0-.09-.09-.07l-.91.13c-.22,0-.22,0-.22.25v2.68a2.36,2.36,0,0,0-.44-.45,2.44,2.44,0,0,0-1.16-.45,3.89,3.89,0,0,0-1.18,0,2.91,2.91,0,0,0-1.72,1.14,3.81,3.81,0,0,0-.64,3.2,3.29,3.29,0,0,0,.78,1.5,2.9,2.9,0,0,0,1.24.86,2.75,2.75,0,0,0,1.48.14,2.6,2.6,0,0,0,1.12-.45,3.38,3.38,0,0,0,.58-.56v1.1l1-.15c.07,0,.13,0,.14-.1s0-.29,0-.43Zm-1.1,5.7a1.88,1.88,0,0,1-.55,1.21,2.3,2.3,0,0,1-1.19.7A1.8,1.8,0,0,1,56.54,60a2.26,2.26,0,0,1-.8-1.7,2.33,2.33,0,0,1,.2-1.19A1.87,1.87,0,0,1,57.41,56a1.23,1.23,0,0,1,.33,0,2.05,2.05,0,0,1,1.67.91A2.33,2.33,0,0,1,59.87,58.46Z"/><path class="cls-2" d="M46,57.37a3.37,3.37,0,0,0-1.06-1.85,3.28,3.28,0,0,0-2.77-.8,3,3,0,0,0-1.88,1.11A3.65,3.65,0,0,0,39.49,59a3.34,3.34,0,0,0,1.84,2.41,3.08,3.08,0,0,0,2.27.21,3.15,3.15,0,0,0,1.69-1.14,3.48,3.48,0,0,0,.77-2.3A3.23,3.23,0,0,0,46,57.37ZM44.8,58.46a2,2,0,0,1-.57,1.25,2,2,0,0,1-.91.62A1.91,1.91,0,0,1,41.55,60a2.28,2.28,0,0,1-.89-2,2.21,2.21,0,0,1,1.23-1.91,1.93,1.93,0,0,1,2.18.35A2.34,2.34,0,0,1,44.8,58.46Z"/><path class="cls-2" d="M53.74,57.53A3.26,3.26,0,0,0,53,55.84a3.06,3.06,0,0,0-1.6-1,3.66,3.66,0,0,0-1.47-.09A3,3,0,0,0,48,55.89a3.53,3.53,0,0,0-.8,2.29,3.26,3.26,0,0,0,0,.54,3.07,3.07,0,0,0,.34,1.14,3.77,3.77,0,0,0,.83,1,3.21,3.21,0,0,0,2.08.81,3.51,3.51,0,0,0,1-.16A3.36,3.36,0,0,0,53,60.44a3.6,3.6,0,0,0,.78-2.23A4,4,0,0,0,53.74,57.53Zm-1.83,2.25a2,2,0,0,1-1.1.62c-.12,0-.23,0-.38,0a2,2,0,0,1-1.7-1,2.18,2.18,0,0,1-.34-1.21,2.24,2.24,0,0,1,.51-1.43,1.94,1.94,0,0,1,2.73-.4,2.31,2.31,0,0,1,.28,3.42Z"/></svg>