<svg xmlns="http://www.w3.org/2000/svg" xmlns:xlink="http://www.w3.org/1999/xlink" width="227" height="90" viewBox="0 0 227 90">
  <defs>
    <clipPath id="clip-path">
      <rect id="Rectangle_2" data-name="Rectangle 2" width="227" height="90"/>
    </clipPath>
  </defs>
  <g id="IEEE_229x90" data-name="IEEE 229x90" clip-path="url(#clip-path)">
    <rect id="Rectangle_1" data-name="Rectangle 1" width="227" height="90" fill="#fff" fill-opacity="0"/>
    <g id="layer1" transform="translate(130.095 -8.624)">
      <g id="g13718" transform="translate(-105.488 27.92)">
        <path id="path13255" d="M-266.4-18.985h10.931v39.46H-266.4Zm0,0" transform="translate(325.983 25.885)" fill="#0a70a3"/>
        <path id="path13257" d="M-260.677,20.475v-39.46h30.059v7.647h-19.132v8.143h17.6V4.457h-17.6V12.82h19.132v7.655Zm0,0" transform="translate(336.927 25.885)" fill="#0a70a3"/>
        <path id="path13259" d="M-248.257,20.475v-39.46h30.051v7.647h-19.12v8.143h17.591V4.457h-17.591V12.82h19.12v7.655Zm0,0" transform="translate(360.687 25.885)" fill="#0a70a3"/>
        <path id="path13261" d="M-235.839,20.475v-39.46h30.059v7.647H-224.9v8.143h17.591V4.457H-224.9V12.82h19.12v7.655Zm0,0" transform="translate(384.443 25.885)" fill="#0a70a3"/>
        <path id="path13263" d="M-262.328-14.01c1.746-1.357,3.938-.229,5.4,1.02a51.579,51.579,0,0,1,4.536,3.862l.257.145A75.547,75.547,0,0,1-241.667,2.868a3.094,3.094,0,0,1,.632,2.553c-.988,2.473-3,4.444-4.753,6.6a80.083,80.083,0,0,1-12.3,11.212c-.907.642-2.133,1.233-3.22.727-3.3-1.73-6.089-4.564-8.984-7.146a62.159,62.159,0,0,1-9.258-10.519,3.088,3.088,0,0,1-.474-1.887A10.018,10.018,0,0,1-277.959.919a86.229,86.229,0,0,1,10.4-10.775,3.025,3.025,0,0,1,.382-.353c1.594-1.381,3.179-2.6,4.849-3.8m5.11-3.982-1.971-2.8a4.008,4.008,0,0,0-.811-.461,1.73,1.73,0,0,0-1.686.413l-3.569,4.648A96.148,96.148,0,0,1-285.165,2.6c-.582.457-1.453.9-1.634,1.659a1.672,1.672,0,0,0,.578,1.654,97.166,97.166,0,0,1,16.627,14.447c.9.943,1.622,1.875,2.5,2.757,1.474,1.963,3.208,3.938,4.56,6.046.426.446.5,1.173,1.164,1.389a1.975,1.975,0,0,0,1.659,0l.494-.494A98.773,98.773,0,0,1-236.636,7.289c.869-.779,2.528-1.067,2.553-2.509A2.278,2.278,0,0,0-235.1,3.1l-.141-.024A87.759,87.759,0,0,1-247.8-7.3l-4.335-4.528c-1.758-1.947-3.461-4.109-5.086-6.163m-4.466,5.051c1.782-1.212,3.38.482,4.761,1.453A71.848,71.848,0,0,1-242.714,3.279a2.719,2.719,0,0,1,.273,2.637,40.631,40.631,0,0,1-3.613,4.717v.079a95.734,95.734,0,0,1-10.148,9.71c-1.767,1.08-3.388,3.428-5.664,1.971A81.988,81.988,0,0,1-276.213,8.847c-.711-1.112-1.827-2.019-2.324-3.28-.691-1.706.835-2.93,1.706-4.215a75.671,75.671,0,0,1,15.149-14.295m1.124,3.484-.482,1.549-2.421,6.941c.606.06,1.357,0,1.951.06v.056L-261.864,7l.06.085a10.289,10.289,0,0,0,2.533-.024V6.931l-.316-7.607.048-.257,2.133-.036c-1.069-2.81-2.1-5.648-3.092-8.49ZM-268.8,1.412c-1.357.683-3.356,1.71-3.135,3.573a3.971,3.971,0,0,0,2.264,2.1,24.6,24.6,0,0,0,16.3.61c1.256-.486,2.942-1.185,3.171-2.726-.012-1.273-1.357-2.072-2.324-2.557v-.06a4.3,4.3,0,0,1,1.071-.293V2.022c-1.7-.3-3.348-.751-5-1.185.316.727.546,1.489.811,2.24a9.248,9.248,0,0,1,1.542-.349c.869.337,2.116.823,2.24,1.91.1,1.015-1.019,1.513-1.722,1.923a19.965,19.965,0,0,1-11.818.461c-1.076-.341-2.626-.775-2.757-2.144.762-1.8,2.734-2.176,4.383-2.614-.847-.546-1.71-1.032-2.528-1.638a7.427,7.427,0,0,0-2.5.79m6.888,7.822c-.145,2.786-.181,5.363-.386,8.161a15.613,15.613,0,0,0,3.521.024l-.349-7.788-.06-.369a19.449,19.449,0,0,1-2.726-.028" transform="translate(286.852 21.352)" fill="#0a70a3"/>
        <path id="path13265" d="M-273.552-5.383a1.773,1.773,0,0,0-1.32.514,1.773,1.773,0,0,0-.522,1.317,1.777,1.777,0,0,0,.521,1.321,1.777,1.777,0,0,0,1.322.518,1.775,1.775,0,0,0,1.317-.52,1.775,1.775,0,0,0,.517-1.318,1.771,1.771,0,0,0-.519-1.315,1.771,1.771,0,0,0-1.316-.516m0,3.243v0a1.319,1.319,0,0,1-.962-.42,1.319,1.319,0,0,1-.351-.989,1.319,1.319,0,0,1,.354-.984,1.319,1.319,0,0,1,.959-.417,1.328,1.328,0,0,1,.956.42,1.328,1.328,0,0,1,.357.981,1.334,1.334,0,0,1-.354.987,1.334,1.334,0,0,1-.958.426m.819-1.8c0-.45-.3-.594-.811-.594h-.735v1.971h.422v-.827h.2l.453.827h.5l-.51-.863a.464.464,0,0,0,.354-.149.464.464,0,0,0,.12-.365m-.751.213h-.374V-4.2h.3c.158,0,.378.016.378.22,0,.22-.108.257-.3.257" transform="translate(308.773 51.908)" fill="#0a70a3"/>
      </g>
    </g>
  </g>
</svg>
